  0
SECTION
  2
HEADER
  9
$ACADVER
  1
AC1009
  9
$DWGCODEPAGE
  3
ansi_1252
  9
$INSBASE
 10
0.0
 20
0.0
 30
0.0
  9
$EXTMIN
 10
132.4907374780274
 20
108.7999847116428
 30
0.0
  9
$EXTMAX
 10
418.2407374780274
 20
204.0499847116428
 30
0.0
  9
$LIMMIN
 10
0.0
 20
0.0
  9
$LIMMAX
 10
420.0
 20
297.0
  9
$ORTHOMODE
 70
     0
  9
$REGENMODE
 70
     1
  9
$FILLMODE
 70
     1
  9
$QTEXTMODE
 70
     0
  9
$MIRRTEXT
 70
     1
  9
$DRAGMODE
 70
     2
  9
$LTSCALE
 40
12.7
  9
$OSMODE
 70
    23
  9
$ATTMODE
 70
     1
  9
$TEXTSIZE
 40
3.5
  9
$TRACEWID
 40
1.0
  9
$TEXTSTYLE
  7
ONSHAPE-STANDARD
  9
$CLAYER
  8
0
  9
$CELTYPE
  6
BYLAYER
  9
$CECOLOR
 62
   256
  9
$DIMSCALE
 40
1.0
  9
$DIMASZ
 40
2.5
  9
$DIMEXO
 40
0.625
  9
$DIMDLI
 40
3.75
  9
$DIMRND
 40
0.0
  9
$DIMDLE
 40
0.0
  9
$DIMEXE
 40
1.25
  9
$DIMTP
 40
0.0
  9
$DIMTM
 40
0.0
  9
$DIMTXT
 40
3.5
  9
$DIMCEN
 40
2.5
  9
$DIMTSZ
 40
0.0
  9
$DIMTOL
 70
     0
  9
$DIMLIM
 70
     0
  9
$DIMTIH
 70
     0
  9
$DIMTOH
 70
     0
  9
$DIMSE1
 70
     0
  9
$DIMSE2
 70
     0
  9
$DIMTAD
 70
     1
  9
$DIMZIN
 70
     8
  9
$DIMBLK
  1

  9
$DIMASO
 70
     1
  9
$DIMSHO
 70
     1
  9
$DIMPOST
  1

  9
$DIMAPOST
  1

  9
$DIMALT
 70
     0
  9
$DIMALTD
 70
     3
  9
$DIMALTF
 40
0.03937
  9
$DIMLFAC
 40
1.0
  9
$DIMTOFL
 70
     1
  9
$DIMTVP
 40
0.0
  9
$DIMTIX
 70
     0
  9
$DIMSOXD
 70
     0
  9
$DIMSAH
 70
     0
  9
$DIMBLK1
  1

  9
$DIMBLK2
  1

  9
$DIMSTYLE
  2
ONSHAPE-ISO-25
  9
$DIMCLRD
 70
     7
  9
$DIMCLRE
 70
     7
  9
$DIMCLRT
 70
     7
  9
$DIMTFAC
 40
1.0
  9
$DIMGAP
 40
0.625
  9
$LUNITS
 70
     2
  9
$LUPREC
 70
     4
  9
$SKETCHINC
 40
1.0
  9
$FILLETRAD
 40
10.0
  9
$AUNITS
 70
     0
  9
$AUPREC
 70
     0
  9
$MENU
  1
.
  9
$ELEVATION
 40
0.0
  9
$PELEVATION
 40
0.0
  9
$THICKNESS
 40
0.0
  9
$LIMCHECK
 70
     0
  9
$CHAMFERA
 40
0.0
  9
$CHAMFERB
 40
0.0
  9
$SKPOLY
 70
     0
  9
$TDCREATE
 40
2459533.325760266
  9
$TDUPDATE
 40
2459533.325760856
  9
$TDINDWG
 40
0.0
  9
$TDUSRTIMER
 40
0.0
  9
$USRTIMER
 70
     1
  9
$ANGBASE
 50
0.0
  9
$ANGDIR
 70
     0
  9
$PDMODE
 70
    33
  9
$PDSIZE
 40
1.0
  9
$PLINEWID
 40
0.0
  9
$COORDS
 70
     1
  9
$SPLFRAME
 70
     0
  9
$SPLINETYPE
 70
     6
  9
$SPLINESEGS
 70
     8
  9
$ATTDIA
 70
     0
  9
$ATTREQ
 70
     1
  9
$HANDLING
 70
     1
  9
$HANDSEED
  5
2E6
  9
$SURFTAB1
 70
     6
  9
$SURFTAB2
 70
     6
  9
$SURFTYPE
 70
     6
  9
$SURFU
 70
     6
  9
$SURFV
 70
     6
  9
$UCSNAME
  2

  9
$UCSORG
 10
0.0
 20
0.0
 30
0.0
  9
$UCSXDIR
 10
1.0
 20
0.0
 30
0.0
  9
$UCSYDIR
 10
0.0
 20
1.0
 30
0.0
  9
$PUCSNAME
  2

  9
$PUCSORG
 10
0.0
 20
0.0
 30
0.0
  9
$PUCSXDIR
 10
1.0
 20
0.0
 30
0.0
  9
$PUCSYDIR
 10
0.0
 20
1.0
 30
0.0
  9
$USERI1
 70
     0
  9
$USERI2
 70
     0
  9
$USERI3
 70
     0
  9
$USERI4
 70
     0
  9
$USERI5
 70
     0
  9
$USERR1
 40
0.0
  9
$USERR2
 40
0.0
  9
$USERR3
 40
0.0
  9
$USERR4
 40
0.0
  9
$USERR5
 40
0.0
  9
$WORLDVIEW
 70
     1
  9
$SHADEDGE
 70
     3
  9
$SHADEDIF
 70
    70
  9
$TILEMODE
 70
     1
  9
$MAXACTVP
 70
    64
  9
$PLIMCHECK
 70
     0
  9
$PEXTMIN
 10
1.000000000000000E+20
 20
1.000000000000000E+20
 30
1.000000000000000E+20
  9
$PEXTMAX
 10
-1.000000000000000E+20
 20
-1.000000000000000E+20
 30
-1.000000000000000E+20
  9
$PLIMMIN
 10
0.0
 20
0.0
  9
$PLIMMAX
 10
420.0
 20
297.0
  9
$UNITMODE
 70
     0
  9
$VISRETAIN
 70
     1
  9
$PLINEGEN
 70
     0
  9
$PSLTSCALE
 70
     1
  0
ENDSEC
  0
SECTION
  2
TABLES
  0
TABLE
  2
VPORT
 70
     1
  0
VPORT
  2
*ACTIVE
 70
     0
 10
0.0
 20
0.0
 11
1.0
 21
1.0
 12
275.3657374780274
 22
156.4249847116428
 13
0.0
 23
0.0
 14
10.0
 24
10.0
 15
10.0
 25
10.0
 16
0.0
 26
0.0
 36
1.0
 17
0.0
 27
0.0
 37
0.0
 40
97.155
 41
3.0
 42
50.0
 43
0.0
 44
0.0
 50
0.0
 51
0.0
 71
     0
 72
   100
 73
     1
 74
     3
 75
     0
 76
     0
 77
     0
 78
     0
  0
ENDTAB
  0
TABLE
  2
LTYPE
 70
     1
  0
LTYPE
  2
CONTINUOUS
 70
     0
  3
Solid line
 72
    65
 73
     0
 40
0.0
  0
ENDTAB
  0
TABLE
  2
LAYER
 70
     2
  0
LAYER
  2
0
 70
     0
 62
     7
  6
CONTINUOUS
  0
LAYER
  2
VISIBLE
 70
     0
 62
     7
  6
CONTINUOUS
  0
ENDTAB
  0
TABLE
  2
STYLE
 70
    27
  0
STYLE
  2
STANDARD
 70
     0
 40
0.0
 41
1.0
 50
0.0
 71
     0
 42
3.5
  3
txt
  4

  0
STYLE
  2
ONSHAPE-STANDARD
 70
     0
 40
0.0
 41
1.0
 50
0.0
 71
     0
 42
3.5
  3
NotoSans-Regular.ttf
  4

  0
STYLE
  2
ONSHAPE-STANDARD-DIMENSION
 70
     0
 40
0.0
 41
1.0
 50
0.0
 71
     0
 42
3.5
  3

  4

  0
STYLE
  2
ONSHAPE-STANDARD-BOLD
 70
     0
 40
0.0
 41
1.0
 50
0.0
 71
     0
 42
3.5
  3
NotoSans-Bold.ttf
  4

  0
STYLE
  2
ONSHAPE-STANDARD-FIELDS
 70
     0
 40
0.0
 41
1.0
 50
0.0
 71
     0
 42
3.5
  3

  4

  0
STYLE
  2
ONSHAPE-STANDARD-TCFIELDS
 70
     0
 40
0.0
 41
1.0
 50
0.0
 71
     0
 42
3.5
  3
NotoSansTC-Regular.otf
  4

  0
STYLE
  2
ONSHAPE-STANDARD-SCFIELDS
 70
     0
 40
0.0
 41
1.0
 50
0.0
 71
     0
 42
3.5
  3
NotoSansSC-Regular.otf
  4

  0
STYLE
  2
ONSHAPE-STANDARD-KOREANFIE
 70
     0
 40
0.0
 41
1.0
 50
0.0
 71
     0
 42
3.5
  3
NotoSansKR-Regular.otf
  4

  0
STYLE
  2
TTFSTYLE
 70
     0
 40
0.0
 41
1.0
 50
0.0
 71
     0
 42
3.5
  3
Verdana.ttf
  4

  0
STYLE
  2
ONSHAPE-STANDARD-GTOLERANC
 70
     0
 40
0.0
 41
1.0
 50
0.0
 71
     0
 42
3.5
  3

  4

  0
STYLE
  2
ONSHAPE-STANDARD-TABLE-DAT
 70
     0
 40
0.0
 41
1.0
 50
0.0
 71
     0
 42
3.5
  3
NotoSans-Regular.ttf
  4

  0
STYLE
  2
ONSHAPE-STANDARD-TABLE-TIT
 70
     0
 40
0.0
 41
1.0
 50
0.0
 71
     0
 42
3.5
  3
NotoSans-Bold.ttf
  4

  0
STYLE
  2
ONSHAPE-STANDARD-TABLE-HEA
 70
     0
 40
0.0
 41
1.0
 50
0.0
 71
     0
 42
3.5
  3
NotoSans-Bold.ttf
  4

  0
STYLE
  2
ONSHAPE-STANDARD-BOMTABLE-
 70
     0
 40
0.0
 41
1.0
 50
0.0
 71
     0
 42
3.5
  3
NotoSans-Regular.ttf
  4

  0
STYLE
  2
ONSHAPE-STANDARD-BOMTABLE0
 70
     0
 40
0.0
 41
1.0
 50
0.0
 71
     0
 42
3.5
  3
NotoSans-Bold.ttf
  4

  0
STYLE
  2
ONSHAPE-STANDARD-BOMTABLE1
 70
     0
 40
0.0
 41
1.0
 50
0.0
 71
     0
 42
3.5
  3
NotoSans-Bold.ttf
  4

  0
STYLE
  2
ONSHAPE-STANDARD-NOTESTYLE
 70
     0
 40
3.5
 41
1.0
 50
0.0
 71
     0
 42
3.5
  3
Noto Sans
  4

  0
STYLE
  2
ONSHAPE-STANDARD-VIEW-LABE
 70
     0
 40
3.5
 41
1.0
 50
0.0
 71
     0
 42
3.5
  3
NotoSans-Regular.ttf
  4

  0
STYLE
  2
ONSHAPE-STANDARD-HOLE-CALL
 70
     0
 40
3.5
 41
1.0
 50
0.0
 71
     0
 42
3.5
  3
Noto Sans
  4

  0
STYLE
  2
ONSHAPE-STANDARD-HOLETABLE
 70
     0
 40
0.0
 41
1.0
 50
0.0
 71
     0
 42
3.5
  3
NotoSans-Regular.ttf
  4

  0
STYLE
  2
ONSHAPE-STANDARD-HOLETABL0
 70
     0
 40
0.0
 41
1.0
 50
0.0
 71
     0
 42
3.5
  3
NotoSans-Bold.ttf
  4

  0
STYLE
  2
ONSHAPE-STANDARD-HOLETABL1
 70
     0
 40
0.0
 41
1.0
 50
0.0
 71
     0
 42
3.5
  3
NotoSans-Bold.ttf
  4

  0
STYLE
  2
ONSHAPE-STANDARD-HOLE-TAG
 70
     0
 40
3.5
 41
1.0
 50
0.0
 71
     0
 42
3.5
  3
Noto Sans
  4

  0
STYLE
  2
ONSHAPE-STANDARD-REVISIONT
 70
     0
 40
0.0
 41
1.0
 50
0.0
 71
     0
 42
3.5
  3
NotoSans-Regular.ttf
  4

  0
STYLE
  2
ONSHAPE-STANDARD-REVISION0
 70
     0
 40
0.0
 41
1.0
 50
0.0
 71
     0
 42
3.5
  3
NotoSans-Bold.ttf
  4

  0
STYLE
  2
ONSHAPE-STANDARD-REVISION1
 70
     0
 40
0.0
 41
1.0
 50
0.0
 71
     0
 42
3.5
  3
NotoSans-Bold.ttf
  4

  0
STYLE
  2
ONSHAPE-STANDARD-REVISION-
 70
     0
 40
3.5
 41
1.0
 50
0.0
 71
     0
 42
3.5
  3
Noto Sans
  4

  0
ENDTAB
  0
TABLE
  2
VIEW
 70
     0
  0
ENDTAB
  0
TABLE
  2
UCS
 70
     0
  0
ENDTAB
  0
TABLE
  2
APPID
 70
     1
  0
APPID
  2
ACAD
 70
     0
  0
ENDTAB
  0
TABLE
  2
DIMSTYLE
 70
    18
  0
DIMSTYLE
  2
ISO-25
 70
     0
  3

  4

  5

  6

  7

 40
1.0
 41
2.5
 42
0.625
 43
3.75
 44
1.25
 45
0.0
 46
0.0
 47
0.0
 48
0.0
140
2.5
141
2.5
142
0.0
143
0.03937007874016
144
1.0
145
0.0
146
1.0
147
0.625
 71
     0
 72
     0
 73
     0
 74
     0
 75
     0
 76
     0
 77
     1
 78
     8
170
     0
171
     3
172
     1
173
     0
174
     0
175
     0
176
     0
177
     0
178
     0
  0
DIMSTYLE
  2
ONSHAPE-ISO-25
 70
     0
  3

  4

  5

  6

  7

 40
1.0
 41
2.5
 42
0.625
 43
3.75
 44
1.25
 45
0.0
 46
0.0
 47
0.0
 48
0.0
140
3.5
141
2.5
142
0.0
143
0.03937
144
1.0
145
0.0
146
1.0
147
0.625
 71
     0
 72
     0
 73
     0
 74
     0
 75
     0
 76
     0
 77
     1
 78
     8
170
     0
171
     3
172
     1
173
     0
174
     0
175
     0
176
     7
177
     7
178
     7
  0
DIMSTYLE
  2
ISO
 70
     0
  3

  4
"
  5

  6

  7

 40
1.0
 41
3.5
 42
1.0
 43
10.0
 44
1.0
 45
0.0
 46
0.0
 47
0.1
 48
0.1
140
3.5
141
0.0
142
0.0
143
0.03937
144
1.0
145
0.0
146
0.71
147
1.5
 71
     0
 72
     0
 73
     0
 74
     0
 75
     0
 76
     0
 77
     1
 78
     8
170
     0
171
     3
172
     1
173
     0
174
     0
175
     0
176
     7
177
     7
178
     7
  0
DIMSTYLE
  2
ISO$3
 70
     0
  3

  4
"
  5

  6

  7

 40
1.0
 41
3.5
 42
1.0
 43
10.0
 44
1.0
 45
0.0
 46
0.0
 47
0.1
 48
0.1
140
3.5
141
0.0
142
0.0
143
0.03937
144
1.0
145
0.0
146
0.71
147
1.5
 71
     0
 72
     0
 73
     0
 74
     1
 75
     0
 76
     0
 77
     1
 78
     8
170
     0
171
     3
172
     0
173
     0
174
     0
175
     0
176
     7
177
     7
178
     7
  0
DIMSTYLE
  2
ISO$4
 70
     0
  3

  4
"
  5

  6

  7

 40
1.0
 41
3.5
 42
1.0
 43
10.0
 44
1.0
 45
0.0
 46
0.0
 47
0.1
 48
0.1
140
3.5
141
0.0
142
0.0
143
0.03937
144
1.0
145
0.0
146
0.71
147
1.5
 71
     0
 72
     0
 73
     0
 74
     0
 75
     0
 76
     0
 77
     1
 78
     8
170
     0
171
     3
172
     1
173
     0
174
     0
175
     0
176
     7
177
     7
178
     7
  0
DIMSTYLE
  2
ISO$6
 70
     0
  3

  4
"
  5

  6

  7

 40
1.0
 41
0.5
 42
1.0
 43
10.0
 44
1.0
 45
0.0
 46
0.0
 47
0.1
 48
0.1
140
3.5
141
0.0
142
0.0
143
0.03937
144
1.0
145
0.0
146
0.71
147
1.5
 71
     0
 72
     0
 73
     0
 74
     0
 75
     0
 76
     0
 77
     0
 78
     8
170
     0
171
     3
172
     1
173
     0
174
     0
175
     0
176
     7
177
     7
178
     7
  0
DIMSTYLE
  2
ISO$7
 70
     0
  3

  4
"
  5

  6

  7

 40
1.0
 41
3.5
 42
1.0
 43
10.0
 44
1.0
 45
0.0
 46
0.0
 47
0.1
 48
0.1
140
3.5
141
0.0
142
0.0
143
0.03937
144
1.0
145
0.0
146
0.71
147
1.5
 71
     0
 72
     0
 73
     0
 74
     0
 75
     0
 76
     0
 77
     1
 78
     8
170
     0
171
     3
172
     1
173
     0
174
     0
175
     0
176
     7
177
     7
178
     7
  0
DIMSTYLE
  2
ISO$SF
 70
     0
  3

  4
"
  5

  6

  7

 40
1.0
 41
3.5
 42
1.0
 43
10.0
 44
1.0
 45
0.0
 46
0.0
 47
0.1
 48
0.1
140
3.5
141
0.0
142
0.0
143
0.03937
144
1.0
145
0.0
146
0.71
147
1.5
 71
     0
 72
     0
 73
     0
 74
     0
 75
     1
 76
     1
 77
     1
 78
     8
170
     0
171
     3
172
     1
173
     0
174
     0
175
     0
176
     7
177
     7
178
     7
  0
DIMSTYLE
  2
ISO$SH
 70
     0
  3

  4
"
  5

  6

  7

 40
1.0
 41
3.5
 42
1.0
 43
10.0
 44
1.0
 45
0.0
 46
0.0
 47
0.1
 48
0.1
140
3.5
141
0.0
142
0.0
143
0.03937
144
2.0
145
0.0
146
0.71
147
1.5
 71
     0
 72
     0
 73
     0
 74
     0
 75
     1
 76
     1
 77
     1
 78
     8
170
     0
171
     3
172
     1
173
     1
174
     0
175
     0
176
     7
177
     7
178
     7
  0
DIMSTYLE
  2
ONSHAPE-ISO-25$0
 70
     0
  3

  4

  5

  6

  7

 40
1.0
 41
2.5
 42
0.625
 43
3.75
 44
1.25
 45
0.0
 46
0.0
 47
0.0
 48
0.0
140
3.5
141
2.5
142
0.0
143
0.03937
144
1.0
145
0.0
146
1.0
147
0.625
 71
     0
 72
     0
 73
     0
 74
     0
 75
     0
 76
     0
 77
     1
 78
     8
170
     0
171
     3
172
     1
173
     0
174
     0
175
     0
176
     7
177
     7
178
     7
  0
DIMSTYLE
  2
ONSHAPE-ISO-25$2
 70
     0
  3

  4

  5

  6

  7

 40
1.0
 41
2.5
 42
0.625
 43
3.75
 44
1.25
 45
0.0
 46
0.0
 47
0.0
 48
0.0
140
3.5
141
2.5
142
0.0
143
0.03937
144
1.0
145
0.0
146
1.0
147
0.625
 71
     0
 72
     0
 73
     0
 74
     0
 75
     0
 76
     0
 77
     1
 78
     8
170
     0
171
     3
172
     1
173
     0
174
     0
175
     0
176
     7
177
     7
178
     7
  0
DIMSTYLE
  2
ONSHAPE-ISO-25$3
 70
     0
  3

  4

  5

  6

  7

 40
1.0
 41
2.5
 42
0.625
 43
3.75
 44
1.25
 45
0.0
 46
0.0
 47
0.0
 48
0.0
140
3.5
141
0.0
142
0.0
143
0.03937
144
1.0
145
0.0
146
1.0
147
0.625
 71
     0
 72
     0
 73
     0
 74
     0
 75
     0
 76
     0
 77
     1
 78
     8
170
     0
171
     3
172
     1
173
     0
174
     0
175
     0
176
     7
177
     7
178
     7
  0
DIMSTYLE
  2
ONSHAPE-ISO-25$4
 70
     0
  3

  4

  5

  6

  7

 40
1.0
 41
2.5
 42
0.625
 43
3.75
 44
1.25
 45
0.0
 46
0.0
 47
0.0
 48
0.0
140
3.5
141
0.0
142
0.0
143
0.03937
144
1.0
145
0.0
146
1.0
147
0.625
 71
     0
 72
     0
 73
     0
 74
     0
 75
     0
 76
     0
 77
     1
 78
     8
170
     0
171
     3
172
     1
173
     0
174
     0
175
     0
176
     7
177
     7
178
     7
  0
DIMSTYLE
  2
ONSHAPE-ISO-25$6
 70
     0
  3

  4

  5

  6

  7

 40
1.0
 41
0.5
 42
0.625
 43
3.75
 44
1.25
 45
0.0
 46
0.0
 47
0.0
 48
0.0
140
3.5
141
2.5
142
0.0
143
0.03937
144
1.0
145
0.0
146
1.0
147
0.625
 71
     0
 72
     0
 73
     0
 74
     0
 75
     0
 76
     0
 77
     1
 78
     8
170
     0
171
     3
172
     1
173
     0
174
     0
175
     0
176
     7
177
     7
178
     7
  0
DIMSTYLE
  2
ONSHAPE-ISO-25$7
 70
     0
  3

  4

  5

  6

  7

 40
1.0
 41
2.5
 42
0.625
 43
3.75
 44
1.25
 45
0.0
 46
0.0
 47
0.0
 48
0.0
140
3.5
141
2.5
142
0.0
143
0.03937
144
1.0
145
0.0
146
1.0
147
0.625
 71
     0
 72
     0
 73
     0
 74
     0
 75
     0
 76
     0
 77
     1
 78
     8
170
     0
171
     3
172
     1
173
     0
174
     0
175
     0
176
     7
177
     7
178
     7
  0
DIMSTYLE
  2
ONSHAPE-STANDARD-GTOLERANC
 70
     0
  3

  4

  5

  6

  7

 40
1.0
 41
2.5
 42
0.625
 43
3.75
 44
1.25
 45
0.0
 46
0.0
 47
0.0
 48
0.0
140
3.5
141
2.5
142
0.0
143
0.03937
144
1.0
145
0.0
146
1.0
147
0.625
 71
     0
 72
     0
 73
     0
 74
     0
 75
     0
 76
     0
 77
     1
 78
     8
170
     0
171
     3
172
     1
173
     0
174
     0
175
     0
176
     7
177
     7
178
     7
  0
DIMSTYLE
  2
ONSHAPE-ORDINATESTYLE
 70
     0
  3

  4

  5

  6

  7

 40
1.0
 41
2.5
 42
0.625
 43
3.75
 44
1.25
 45
0.0
 46
0.0
 47
0.0
 48
0.0
140
3.5
141
2.5
142
0.0
143
0.03937
144
1.0
145
0.0
146
1.0
147
0.625
 71
     0
 72
     0
 73
     0
 74
     0
 75
     0
 76
     0
 77
     1
 78
     8
170
     0
171
     3
172
     1
173
     0
174
     0
175
     0
176
     7
177
     7
178
     7
  0
DIMSTYLE
  2
ONSHAPE-CHAMFERDIMSTYLE
 70
     0
  3

  4

  5

  6

  7

 40
1.0
 41
2.5
 42
0.625
 43
3.75
 44
1.25
 45
0.0
 46
0.0
 47
0.0
 48
0.0
140
3.5
141
2.5
142
0.0
143
0.03937
144
1.0
145
0.0
146
1.0
147
0.625
 71
     0
 72
     0
 73
     0
 74
     0
 75
     0
 76
     0
 77
     1
 78
     8
170
     0
171
     3
172
     1
173
     0
174
     0
175
     0
176
     7
177
     7
178
     7
  0
ENDTAB
  0
ENDSEC
  0
SECTION
  2
BLOCKS
  0
BLOCK
  8
0
  2
$MODEL_SPACE
 70
     0
 10
0.0
 20
0.0
 30
0.0
  3
$MODEL_SPACE
  1

  0
ENDBLK
  5
21
  8
0
  0
BLOCK
 67
     1
  8
0
  2
$PAPER_SPACE
 70
     0
 10
0.0
 20
0.0
 30
0.0
  3
$PAPER_SPACE
  1

  0
ENDBLK
  5
1D
 67
     1
  8
0
  0
ENDSEC
  0
SECTION
  2
ENTITIES
  0
ARC
  5
75
  8
VISIBLE
 10
144.9839874780274
 20
145.8749847116429
 30
0.0
 40
0.5000000000000004
 50
0.0
 51
90.0
  0
LINE
  5
76
  8
VISIBLE
 10
144.9839874780274
 20
146.3749847116428
 30
0.0
 11
138.9839874780274
 21
146.3749847116429
 31
0.0
  0
ARC
  5
77
  8
VISIBLE
 10
138.9839874780274
 20
145.8749847116429
 30
0.0
 40
0.5000000000000004
 50
90.0
 51
180.0
  0
LINE
  5
78
  8
VISIBLE
 10
138.4839874780274
 20
130.8749847116429
 30
0.0
 11
138.4839874780274
 21
145.8749847116429
 31
0.0
  0
ARC
  5
79
  8
VISIBLE
 10
138.9839874780274
 20
130.8749847116429
 30
0.0
 40
0.5
 50
180.0
 51
270.0
  0
LINE
  5
7A
  8
VISIBLE
 10
138.9839874780274
 20
130.3749847116429
 30
0.0
 11
168.8599874780274
 21
130.3749847116429
 31
0.0
  0
ARC
  5
7B
  8
VISIBLE
 10
168.8599874780274
 20
130.8749847116429
 30
0.0
 40
0.5
 50
270.0
 51
0.0
  0
LINE
  5
7C
  8
VISIBLE
 10
169.3599874780274
 20
130.8749847116429
 30
0.0
 11
169.3599874780274
 21
145.8749847116429
 31
0.0
  0
ARC
  5
7D
  8
VISIBLE
 10
168.8599874780274
 20
145.8749847116429
 30
0.0
 40
0.5000000000000004
 50
0.0
 51
90.0
  0
LINE
  5
7E
  8
VISIBLE
 10
168.8599874780274
 20
146.3749847116428
 30
0.0
 11
162.8599874780274
 21
146.3749847116429
 31
0.0
  0
ARC
  5
7F
  8
VISIBLE
 10
162.8599874780274
 20
145.8749847116429
 30
0.0
 40
0.5000000000000004
 50
90.0
 51
180.0
  0
LINE
  5
80
  8
VISIBLE
 10
162.3599874780274
 20
144.8749847116429
 30
0.0
 11
162.3599874780274
 21
145.8749847116429
 31
0.0
  0
ARC
  5
81
  8
VISIBLE
 10
161.8599874780274
 20
144.8749847116429
 30
0.0
 40
0.5
 50
270.0
 51
0.0
  0
LINE
  5
82
  8
VISIBLE
 10
145.9839874780274
 20
144.3749847116428
 30
0.0
 11
161.8599874780274
 21
144.3749847116428
 31
0.0
  0
ARC
  5
83
  8
VISIBLE
 10
145.9839874780274
 20
144.8749847116429
 30
0.0
 40
0.5
 50
180.0
 51
270.0
  0
LINE
  5
84
  8
VISIBLE
 10
145.4839874780274
 20
144.8749847116429
 30
0.0
 11
145.4839874780274
 21
145.8749847116429
 31
0.0
  0
ARC
  5
85
  8
VISIBLE
 10
137.8969874780274
 20
162.9249847116428
 30
0.0
 40
0.5000000000000004
 50
90.0
 51
180.0
  0
LINE
  5
86
  8
VISIBLE
 10
137.3969874780274
 20
162.9249847116428
 30
0.0
 11
137.3969874780274
 21
149.9249847116428
 31
0.0
  0
ARC
  5
87
  8
VISIBLE
 10
137.8969874780274
 20
149.9249847116428
 30
0.0
 40
0.5000000000000004
 50
180.0
 51
270.0
  0
LINE
  5
88
  8
VISIBLE
 10
137.8969874780274
 20
149.4249847116428
 30
0.0
 11
155.6594874780274
 21
149.4249847116428
 31
0.0
  0
ARC
  5
89
  8
VISIBLE
 10
155.6594874780274
 20
149.9249847116428
 30
0.0
 40
0.4999999999999887
 50
270.0
 51
0.0
  0
LINE
  5
8A
  8
VISIBLE
 10
156.1594874780274
 20
162.9249847116428
 30
0.0
 11
156.1594874780274
 21
149.9249847116428
 31
0.0
  0
ARC
  5
8B
  8
VISIBLE
 10
155.6594874780274
 20
162.9249847116429
 30
0.0
 40
0.4999999999999887
 50
0.0
 51
90.0
  0
LINE
  5
8C
  8
VISIBLE
 10
137.8969874780274
 20
163.4249847116428
 30
0.0
 11
155.6594874780274
 21
163.4249847116428
 31
0.0
  0
LINE
  5
8D
  8
VISIBLE
 10
396.9532374780274
 20
124.8249847116429
 30
0.0
 11
396.9532374780274
 21
111.8249847116429
 31
0.0
  0
ARC
  5
8E
  8
VISIBLE
 10
397.4532374780274
 20
111.8249847116428
 30
0.0
 40
0.49999999999999
 50
179.9999999999967
 51
270.0
  0
LINE
  5
8F
  8
VISIBLE
 10
397.4532374780274
 20
111.3249847116429
 30
0.0
 11
410.4532374780274
 21
111.3249847116429
 31
0.0
  0
ARC
  5
90
  8
VISIBLE
 10
410.4532374780274
 20
111.8249847116429
 30
0.0
 40
0.5000000000000004
 50
270.0
 51
0.0
  0
LINE
  5
91
  8
VISIBLE
 10
410.9532374780274
 20
124.8249847116429
 30
0.0
 11
410.9532374780274
 21
111.8249847116429
 31
0.0
  0
ARC
  5
92
  8
VISIBLE
 10
410.4532374780274
 20
124.8249847116429
 30
0.0
 40
0.5000000000000004
 50
0.0
 51
90.0
  0
LINE
  5
93
  8
VISIBLE
 10
397.4532374780274
 20
125.3249847116429
 30
0.0
 11
410.4532374780274
 21
125.3249847116429
 31
0.0
  0
ARC
  5
94
  8
VISIBLE
 10
397.4532374780274
 20
124.8249847116429
 30
0.0
 40
0.49999999999999
 50
90.0
 51
180.0000000000016
  0
LINE
  5
95
  8
VISIBLE
 10
349.3282374780274
 20
124.8249847116429
 30
0.0
 11
349.3282374780274
 21
111.8249847116429
 31
0.0
  0
ARC
  5
96
  8
VISIBLE
 10
349.8282374780274
 20
111.8249847116429
 30
0.0
 40
0.5000000000000004
 50
180.0
 51
270.0
  0
LINE
  5
97
  8
VISIBLE
 10
349.8282374780274
 20
111.3249847116429
 30
0.0
 11
362.8282374780274
 21
111.3249847116429
 31
0.0
  0
ARC
  5
98
  8
VISIBLE
 10
362.8282374780274
 20
111.8249847116429
 30
0.0
 40
0.5000000000000109
 50
270.0
 51
0.0
  0
LINE
  5
99
  8
VISIBLE
 10
363.3282374780275
 20
124.8249847116429
 30
0.0
 11
363.3282374780275
 21
111.8249847116429
 31
0.0
  0
ARC
  5
9A
  8
VISIBLE
 10
362.8282374780274
 20
124.8249847116428
 30
0.0
 40
0.5000000000000109
 50
0.0
 51
90.0
  0
LINE
  5
9B
  8
VISIBLE
 10
349.8282374780274
 20
125.3249847116429
 30
0.0
 11
362.8282374780274
 21
125.3249847116429
 31
0.0
  0
ARC
  5
9C
  8
VISIBLE
 10
349.8282374780274
 20
124.8249847116429
 30
0.0
 40
0.5000000000000004
 50
90.0
 51
180.0
  0
LINE
  5
9D
  8
VISIBLE
 10
336.0157374780275
 20
112.8249847116429
 30
0.0
 11
336.0157374780275
 21
126.8249847116429
 31
0.0
  0
ARC
  5
9E
  8
VISIBLE
 10
335.5157374780275
 20
126.8249847116429
 30
0.0
 40
0.499999999999997
 50
0.0
 51
90.00000000000651
  0
LINE
  5
9F
  8
VISIBLE
 10
335.5157374780274
 20
127.3249847116429
 30
0.0
 11
329.5157374780274
 21
127.3249847116429
 31
0.0
  0
ARC
  5
A0
  8
VISIBLE
 10
329.5157374780274
 20
126.8249847116429
 30
0.0
 40
0.499999999999997
 50
90.0
 51
180.0
  0
LINE
  5
A1
  8
VISIBLE
 10
329.0157374780275
 20
112.8249847116429
 30
0.0
 11
329.0157374780274
 21
126.8249847116429
 31
0.0
  0
ARC
  5
A2
  8
VISIBLE
 10
329.5157374780275
 20
112.8249847116429
 30
0.0
 40
0.5000000000000073
 50
180.0
 51
269.9999999999935
  0
LINE
  5
A3
  8
VISIBLE
 10
335.5157374780274
 20
112.3249847116429
 30
0.0
 11
329.5157374780274
 21
112.3249847116429
 31
0.0
  0
ARC
  5
A4
  8
VISIBLE
 10
335.5157374780274
 20
112.8249847116429
 30
0.0
 40
0.5000000000000073
 50
270.0
 51
0.0
  0
LINE
  5
A5
  8
VISIBLE
 10
221.7157374780274
 20
112.8249847116429
 30
0.0
 11
221.7157374780274
 21
126.8249847116429
 31
0.0
  0
ARC
  5
A6
  8
VISIBLE
 10
221.2157374780274
 20
126.8249847116429
 30
0.0
 40
0.499999999999997
 50
0.0
 51
90.0
  0
LINE
  5
A7
  8
VISIBLE
 10
221.2157374780274
 20
127.3249847116429
 30
0.0
 11
215.2157374780274
 21
127.3249847116429
 31
0.0
  0
ARC
  5
A8
  8
VISIBLE
 10
215.2157374780274
 20
126.8249847116429
 30
0.0
 40
0.499999999999997
 50
90.0
 51
180.0
  0
LINE
  5
A9
  8
VISIBLE
 10
214.7157374780274
 20
112.8249847116429
 30
0.0
 11
214.7157374780274
 21
126.8249847116429
 31
0.0
  0
ARC
  5
AA
  8
VISIBLE
 10
215.2157374780274
 20
112.8249847116429
 30
0.0
 40
0.5000000000000073
 50
180.0
 51
270.0
  0
LINE
  5
AB
  8
VISIBLE
 10
221.2157374780274
 20
112.3249847116429
 30
0.0
 11
215.2157374780274
 21
112.3249847116429
 31
0.0
  0
ARC
  5
AC
  8
VISIBLE
 10
221.2157374780274
 20
112.8249847116429
 30
0.0
 40
0.5000000000000073
 50
270.0000000000032
 51
0.0
  0
LINE
  5
AD
  8
VISIBLE
 10
268.3657374780274
 20
124.8249847116429
 30
0.0
 11
268.3657374780274
 21
111.8249847116429
 31
0.0
  0
ARC
  5
AE
  8
VISIBLE
 10
268.8657374780274
 20
111.8249847116429
 30
0.0
 40
0.5000000000000004
 50
180.0
 51
270.0
  0
LINE
  5
AF
  8
VISIBLE
 10
268.8657374780274
 20
111.3249847116429
 30
0.0
 11
281.8657374780274
 21
111.3249847116429
 31
0.0
  0
ARC
  5
B0
  8
VISIBLE
 10
281.8657374780274
 20
111.8249847116429
 30
0.0
 40
0.5000000000000004
 50
270.0
 51
0.0
  0
LINE
  5
B1
  8
VISIBLE
 10
282.3657374780274
 20
124.8249847116429
 30
0.0
 11
282.3657374780274
 21
111.8249847116429
 31
0.0
  0
ARC
  5
B2
  8
VISIBLE
 10
281.8657374780274
 20
124.8249847116429
 30
0.0
 40
0.5000000000000004
 50
0.0
 51
90.0
  0
LINE
  5
B3
  8
VISIBLE
 10
268.8657374780274
 20
125.3249847116429
 30
0.0
 11
281.8657374780274
 21
125.3249847116429
 31
0.0
  0
ARC
  5
B4
  8
VISIBLE
 10
268.8657374780274
 20
124.8249847116429
 30
0.0
 40
0.5000000000000004
 50
90.0
 51
180.0
  0
LINE
  5
B5
  8
VISIBLE
 10
187.4032374780274
 20
124.8249847116429
 30
0.0
 11
187.4032374780274
 21
111.8249847116429
 31
0.0
  0
ARC
  5
B6
  8
VISIBLE
 10
187.9032374780274
 20
111.8249847116429
 30
0.0
 40
0.5000000000000109
 50
180.0000000000032
 51
270.0
  0
LINE
  5
B7
  8
VISIBLE
 10
187.9032374780274
 20
111.3249847116429
 30
0.0
 11
200.9032374780274
 21
111.3249847116429
 31
0.0
  0
ARC
  5
B8
  8
VISIBLE
 10
200.9032374780274
 20
111.8249847116429
 30
0.0
 40
0.5000000000000004
 50
270.0
 51
0.0
  0
LINE
  5
B9
  8
VISIBLE
 10
201.4032374780274
 20
124.8249847116429
 30
0.0
 11
201.4032374780274
 21
111.8249847116429
 31
0.0
  0
ARC
  5
BA
  8
VISIBLE
 10
200.9032374780274
 20
124.8249847116429
 30
0.0
 40
0.5000000000000004
 50
0.0
 51
90.0
  0
LINE
  5
BB
  8
VISIBLE
 10
187.9032374780274
 20
125.3249847116429
 30
0.0
 11
200.9032374780274
 21
125.3249847116429
 31
0.0
  0
ARC
  5
BC
  8
VISIBLE
 10
187.9032374780274
 20
124.8249847116428
 30
0.0
 40
0.5000000000000109
 50
90.0
 51
179.9999999999967
  0
LINE
  5
BD
  8
VISIBLE
 10
139.7782374780274
 20
124.8249847116429
 30
0.0
 11
139.7782374780274
 21
111.8249847116429
 31
0.0
  0
ARC
  5
BE
  8
VISIBLE
 10
140.2782374780274
 20
111.8249847116429
 30
0.0
 40
0.5000000000000004
 50
180.0
 51
270.0
  0
LINE
  5
BF
  8
VISIBLE
 10
140.2782374780274
 20
111.3249847116429
 30
0.0
 11
153.2782374780274
 21
111.3249847116429
 31
0.0
  0
ARC
  5
C0
  8
VISIBLE
 10
153.2782374780274
 20
111.8249847116429
 30
0.0
 40
0.5000000000000004
 50
270.0
 51
0.0
  0
LINE
  5
C1
  8
VISIBLE
 10
153.7782374780274
 20
124.8249847116429
 30
0.0
 11
153.7782374780274
 21
111.8249847116429
 31
0.0
  0
ARC
  5
C2
  8
VISIBLE
 10
153.2782374780274
 20
124.8249847116429
 30
0.0
 40
0.5000000000000004
 50
0.0
 51
90.0
  0
LINE
  5
C3
  8
VISIBLE
 10
140.2782374780274
 20
125.3249847116429
 30
0.0
 11
153.2782374780274
 21
125.3249847116429
 31
0.0
  0
ARC
  5
C4
  8
VISIBLE
 10
140.2782374780274
 20
124.8249847116429
 30
0.0
 40
0.5000000000000004
 50
90.0
 51
180.0
  0
LINE
  5
C5
  8
VISIBLE
 10
401.7157374780274
 20
143.8749847116429
 30
0.0
 11
401.7157374780274
 21
130.8749847116429
 31
0.0
  0
ARC
  5
C6
  8
VISIBLE
 10
402.2157374780274
 20
130.8749847116429
 30
0.0
 40
0.5000000000000004
 50
180.0
 51
270.0
  0
LINE
  5
C7
  8
VISIBLE
 10
402.2157374780274
 20
130.3749847116429
 30
0.0
 11
415.2157374780274
 21
130.3749847116429
 31
0.0
  0
ARC
  5
C8
  8
VISIBLE
 10
415.2157374780274
 20
130.8749847116429
 30
0.0
 40
0.5000000000000004
 50
270.0
 51
0.0
  0
LINE
  5
C9
  8
VISIBLE
 10
415.7157374780274
 20
143.8749847116429
 30
0.0
 11
415.7157374780274
 21
130.8749847116429
 31
0.0
  0
ARC
  5
CA
  8
VISIBLE
 10
415.2157374780274
 20
143.8749847116429
 30
0.0
 40
0.5000000000000004
 50
0.0
 51
90.0
  0
LINE
  5
CB
  8
VISIBLE
 10
402.2157374780274
 20
144.3749847116428
 30
0.0
 11
415.2157374780274
 21
144.3749847116429
 31
0.0
  0
ARC
  5
CC
  8
VISIBLE
 10
402.2157374780274
 20
143.8749847116429
 30
0.0
 40
0.5000000000000004
 50
90.0
 51
180.0
  0
LINE
  5
CD
  8
VISIBLE
 10
375.5219874780274
 20
143.8749847116429
 30
0.0
 11
375.5219874780274
 21
130.8749847116429
 31
0.0
  0
ARC
  5
CE
  8
VISIBLE
 10
376.0219874780274
 20
130.8749847116429
 30
0.0
 40
0.5000000000000004
 50
180.0
 51
270.0
  0
LINE
  5
CF
  8
VISIBLE
 10
376.0219874780274
 20
130.3749847116429
 30
0.0
 11
389.0219874780274
 21
130.3749847116429
 31
0.0
  0
ARC
  5
D0
  8
VISIBLE
 10
389.0219874780274
 20
130.8749847116429
 30
0.0
 40
0.5000000000000125
 50
270.0
 51
0.0
  0
LINE
  5
D1
  8
VISIBLE
 10
389.5219874780274
 20
143.8749847116429
 30
0.0
 11
389.5219874780274
 21
130.8749847116429
 31
0.0
  0
ARC
  5
D2
  8
VISIBLE
 10
389.0219874780274
 20
143.8749847116428
 30
0.0
 40
0.5000000000000125
 50
0.0
 51
90.0
  0
LINE
  5
D3
  8
VISIBLE
 10
376.0219874780274
 20
144.3749847116428
 30
0.0
 11
389.0219874780274
 21
144.3749847116429
 31
0.0
  0
ARC
  5
D4
  8
VISIBLE
 10
376.0219874780274
 20
143.8749847116429
 30
0.0
 40
0.5000000000000004
 50
90.0
 51
180.0
  0
LINE
  5
D5
  8
VISIBLE
 10
349.3282374780274
 20
143.8749847116429
 30
0.0
 11
349.3282374780274
 21
130.8749847116429
 31
0.0
  0
ARC
  5
D6
  8
VISIBLE
 10
349.8282374780274
 20
130.8749847116429
 30
0.0
 40
0.5000000000000004
 50
180.0
 51
270.0
  0
LINE
  5
D7
  8
VISIBLE
 10
349.8282374780274
 20
130.3749847116429
 30
0.0
 11
362.8282374780274
 21
130.3749847116429
 31
0.0
  0
ARC
  5
D8
  8
VISIBLE
 10
362.8282374780274
 20
130.8749847116429
 30
0.0
 40
0.5000000000000125
 50
270.0
 51
0.0
  0
LINE
  5
D9
  8
VISIBLE
 10
363.3282374780275
 20
143.8749847116429
 30
0.0
 11
363.3282374780275
 21
130.8749847116429
 31
0.0
  0
ARC
  5
DA
  8
VISIBLE
 10
362.8282374780274
 20
143.8749847116428
 30
0.0
 40
0.5000000000000125
 50
0.0
 51
90.0
  0
LINE
  5
DB
  8
VISIBLE
 10
349.8282374780274
 20
144.3749847116428
 30
0.0
 11
362.8282374780274
 21
144.3749847116429
 31
0.0
  0
ARC
  5
DC
  8
VISIBLE
 10
349.8282374780274
 20
143.8749847116429
 30
0.0
 40
0.5000000000000004
 50
90.0
 51
180.0
  0
LINE
  5
DD
  8
VISIBLE
 10
330.2782374780274
 20
143.8749847116429
 30
0.0
 11
330.2782374780274
 21
130.8749847116429
 31
0.0
  0
ARC
  5
DE
  8
VISIBLE
 10
330.7782374780274
 20
130.8749847116429
 30
0.0
 40
0.5000000000000004
 50
180.0
 51
270.0
  0
LINE
  5
DF
  8
VISIBLE
 10
330.7782374780274
 20
130.3749847116429
 30
0.0
 11
343.7782374780274
 21
130.3749847116429
 31
0.0
  0
ARC
  5
E0
  8
VISIBLE
 10
343.7782374780274
 20
130.8749847116429
 30
0.0
 40
0.5000000000000004
 50
270.0
 51
0.0
  0
LINE
  5
E1
  8
VISIBLE
 10
344.2782374780274
 20
143.8749847116429
 30
0.0
 11
344.2782374780274
 21
130.8749847116429
 31
0.0
  0
ARC
  5
E2
  8
VISIBLE
 10
343.7782374780274
 20
143.8749847116429
 30
0.0
 40
0.5000000000000004
 50
0.0
 51
90.0
  0
LINE
  5
E3
  8
VISIBLE
 10
330.7782374780274
 20
144.3749847116428
 30
0.0
 11
343.7782374780274
 21
144.3749847116429
 31
0.0
  0
ARC
  5
E4
  8
VISIBLE
 10
330.7782374780274
 20
143.8749847116429
 30
0.0
 40
0.5000000000000004
 50
90.0
 51
180.0
  0
LINE
  5
E5
  8
VISIBLE
 10
311.2282374780274
 20
143.8749847116429
 30
0.0
 11
311.2282374780274
 21
130.8749847116429
 31
0.0
  0
ARC
  5
E6
  8
VISIBLE
 10
311.7282374780274
 20
130.8749847116429
 30
0.0
 40
0.5000000000000004
 50
180.0
 51
270.0
  0
LINE
  5
E7
  8
VISIBLE
 10
311.7282374780274
 20
130.3749847116429
 30
0.0
 11
324.7282374780274
 21
130.3749847116429
 31
0.0
  0
ARC
  5
E8
  8
VISIBLE
 10
324.7282374780274
 20
130.8749847116429
 30
0.0
 40
0.5000000000000057
 50
270.0
 51
0.0
  0
LINE
  5
E9
  8
VISIBLE
 10
325.2282374780274
 20
143.8749847116429
 30
0.0
 11
325.2282374780274
 21
130.8749847116429
 31
0.0
  0
ARC
  5
EA
  8
VISIBLE
 10
324.7282374780274
 20
143.8749847116428
 30
0.0
 40
0.5000000000000066
 50
0.0
 51
90.0
  0
LINE
  5
EB
  8
VISIBLE
 10
311.7282374780274
 20
144.3749847116428
 30
0.0
 11
324.7282374780274
 21
144.3749847116429
 31
0.0
  0
ARC
  5
EC
  8
VISIBLE
 10
311.7282374780274
 20
143.8749847116429
 30
0.0
 40
0.5000000000000004
 50
90.0
 51
180.0
  0
LINE
  5
ED
  8
VISIBLE
 10
292.1782374780274
 20
143.8749847116429
 30
0.0
 11
292.1782374780274
 21
130.8749847116429
 31
0.0
  0
ARC
  5
EE
  8
VISIBLE
 10
292.6782374780274
 20
130.8749847116429
 30
0.0
 40
0.5000000000000004
 50
180.0
 51
270.0
  0
LINE
  5
EF
  8
VISIBLE
 10
292.6782374780274
 20
130.3749847116429
 30
0.0
 11
305.6782374780274
 21
130.3749847116429
 31
0.0
  0
ARC
  5
F0
  8
VISIBLE
 10
305.6782374780274
 20
130.8749847116429
 30
0.0
 40
0.5000000000000004
 50
270.0
 51
0.0
  0
LINE
  5
F1
  8
VISIBLE
 10
306.1782374780274
 20
143.8749847116429
 30
0.0
 11
306.1782374780274
 21
130.8749847116429
 31
0.0
  0
ARC
  5
F2
  8
VISIBLE
 10
305.6782374780274
 20
143.8749847116429
 30
0.0
 40
0.5000000000000004
 50
0.0
 51
90.0
  0
LINE
  5
F3
  8
VISIBLE
 10
292.6782374780274
 20
144.3749847116428
 30
0.0
 11
305.6782374780274
 21
144.3749847116429
 31
0.0
  0
ARC
  5
F4
  8
VISIBLE
 10
292.6782374780274
 20
143.8749847116429
 30
0.0
 40
0.5000000000000004
 50
90.0
 51
180.0
  0
LINE
  5
F5
  8
VISIBLE
 10
273.1282374780274
 20
143.8749847116429
 30
0.0
 11
273.1282374780274
 21
130.8749847116429
 31
0.0
  0
ARC
  5
F6
  8
VISIBLE
 10
273.6282374780274
 20
130.8749847116429
 30
0.0
 40
0.5000000000000001
 50
180.0
 51
270.0
  0
LINE
  5
F7
  8
VISIBLE
 10
273.6282374780274
 20
130.3749847116429
 30
0.0
 11
286.6282374780274
 21
130.3749847116429
 31
0.0
  0
ARC
  5
F8
  8
VISIBLE
 10
286.6282374780274
 20
130.8749847116429
 30
0.0
 40
0.5000000000000022
 50
270.0
 51
0.0
  0
LINE
  5
F9
  8
VISIBLE
 10
287.1282374780274
 20
143.8749847116429
 30
0.0
 11
287.1282374780274
 21
130.8749847116429
 31
0.0
  0
ARC
  5
FA
  8
VISIBLE
 10
286.6282374780274
 20
143.8749847116428
 30
0.0
 40
0.5000000000000022
 50
0.0
 51
90.0
  0
LINE
  5
FB
  8
VISIBLE
 10
273.6282374780274
 20
144.3749847116428
 30
0.0
 11
286.6282374780274
 21
144.3749847116429
 31
0.0
  0
ARC
  5
FC
  8
VISIBLE
 10
273.6282374780274
 20
143.8749847116429
 30
0.0
 40
0.5000000000000001
 50
90.0
 51
180.0
  0
LINE
  5
FD
  8
VISIBLE
 10
254.0782374780274
 20
143.8749847116429
 30
0.0
 11
254.0782374780274
 21
130.8749847116429
 31
0.0
  0
ARC
  5
FE
  8
VISIBLE
 10
254.5782374780274
 20
130.8749847116429
 30
0.0
 40
0.5000000000000039
 50
180.0
 51
270.0
  0
LINE
  5
FF
  8
VISIBLE
 10
254.5782374780274
 20
130.3749847116429
 30
0.0
 11
267.5782374780274
 21
130.3749847116429
 31
0.0
  0
ARC
  5
100
  8
VISIBLE
 10
267.5782374780274
 20
130.8749847116429
 30
0.0
 40
0.5000000000000004
 50
270.0
 51
0.0
  0
LINE
  5
101
  8
VISIBLE
 10
268.0782374780274
 20
143.8749847116429
 30
0.0
 11
268.0782374780274
 21
130.8749847116429
 31
0.0
  0
ARC
  5
102
  8
VISIBLE
 10
267.5782374780274
 20
143.8749847116429
 30
0.0
 40
0.4999999999999996
 50
0.0
 51
90.0
  0
LINE
  5
103
  8
VISIBLE
 10
254.5782374780274
 20
144.3749847116428
 30
0.0
 11
267.5782374780274
 21
144.3749847116429
 31
0.0
  0
ARC
  5
104
  8
VISIBLE
 10
254.5782374780274
 20
143.8749847116428
 30
0.0
 40
0.500000000000003
 50
90.0
 51
179.9999999999967
  0
LINE
  5
105
  8
VISIBLE
 10
235.0282374780274
 20
143.8749847116429
 30
0.0
 11
235.0282374780274
 21
130.8749847116429
 31
0.0
  0
ARC
  5
106
  8
VISIBLE
 10
235.5282374780274
 20
130.8749847116429
 30
0.0
 40
0.5000000000000004
 50
180.0
 51
270.0
  0
LINE
  5
107
  8
VISIBLE
 10
235.5282374780274
 20
130.3749847116429
 30
0.0
 11
248.5282374780274
 21
130.3749847116429
 31
0.0
  0
ARC
  5
108
  8
VISIBLE
 10
248.5282374780274
 20
130.8749847116429
 30
0.0
 40
0.5000000000000004
 50
270.0
 51
0.0
  0
LINE
  5
109
  8
VISIBLE
 10
249.0282374780274
 20
143.8749847116429
 30
0.0
 11
249.0282374780274
 21
130.8749847116429
 31
0.0
  0
ARC
  5
10A
  8
VISIBLE
 10
248.5282374780274
 20
143.8749847116429
 30
0.0
 40
0.5000000000000004
 50
0.0
 51
90.0
  0
LINE
  5
10B
  8
VISIBLE
 10
235.5282374780274
 20
144.3749847116428
 30
0.0
 11
248.5282374780274
 21
144.3749847116429
 31
0.0
  0
ARC
  5
10C
  8
VISIBLE
 10
235.5282374780274
 20
143.8749847116429
 30
0.0
 40
0.5000000000000004
 50
90.0
 51
180.0
  0
LINE
  5
10D
  8
VISIBLE
 10
215.9782374780274
 20
143.8749847116429
 30
0.0
 11
215.9782374780274
 21
130.8749847116429
 31
0.0
  0
ARC
  5
10E
  8
VISIBLE
 10
216.4782374780274
 20
130.8749847116429
 30
0.0
 40
0.5000000000000057
 50
180.0
 51
270.0
  0
LINE
  5
10F
  8
VISIBLE
 10
216.4782374780274
 20
130.3749847116429
 30
0.0
 11
229.4782374780274
 21
130.3749847116429
 31
0.0
  0
ARC
  5
110
  8
VISIBLE
 10
229.4782374780274
 20
130.8749847116429
 30
0.0
 40
0.5000000000000004
 50
270.0
 51
0.0
  0
LINE
  5
111
  8
VISIBLE
 10
229.9782374780274
 20
143.8749847116429
 30
0.0
 11
229.9782374780274
 21
130.8749847116429
 31
0.0
  0
ARC
  5
112
  8
VISIBLE
 10
229.4782374780274
 20
143.8749847116429
 30
0.0
 40
0.5000000000000004
 50
0.0
 51
90.0
  0
LINE
  5
113
  8
VISIBLE
 10
216.4782374780274
 20
144.3749847116428
 30
0.0
 11
229.4782374780274
 21
144.3749847116429
 31
0.0
  0
ARC
  5
114
  8
VISIBLE
 10
216.4782374780274
 20
143.8749847116428
 30
0.0
 40
0.5000000000000066
 50
90.0
 51
179.9999999999967
  0
LINE
  5
115
  8
VISIBLE
 10
196.9282374780274
 20
143.8749847116429
 30
0.0
 11
196.9282374780274
 21
130.8749847116429
 31
0.0
  0
ARC
  5
116
  8
VISIBLE
 10
197.4282374780274
 20
130.8749847116429
 30
0.0
 40
0.5000000000000004
 50
180.0
 51
270.0
  0
LINE
  5
117
  8
VISIBLE
 10
197.4282374780274
 20
130.3749847116429
 30
0.0
 11
210.4282374780274
 21
130.3749847116429
 31
0.0
  0
ARC
  5
118
  8
VISIBLE
 10
210.4282374780274
 20
130.8749847116429
 30
0.0
 40
0.5000000000000004
 50
270.0
 51
0.0
  0
LINE
  5
119
  8
VISIBLE
 10
210.9282374780274
 20
143.8749847116429
 30
0.0
 11
210.9282374780274
 21
130.8749847116429
 31
0.0
  0
ARC
  5
11A
  8
VISIBLE
 10
210.4282374780274
 20
143.8749847116429
 30
0.0
 40
0.5000000000000004
 50
0.0
 51
90.0
  0
LINE
  5
11B
  8
VISIBLE
 10
197.4282374780274
 20
144.3749847116428
 30
0.0
 11
210.4282374780274
 21
144.3749847116429
 31
0.0
  0
ARC
  5
11C
  8
VISIBLE
 10
197.4282374780274
 20
143.8749847116429
 30
0.0
 40
0.5000000000000004
 50
90.0
 51
180.0
  0
LINE
  5
11D
  8
VISIBLE
 10
177.8782374780274
 20
143.8749847116429
 30
0.0
 11
177.8782374780274
 21
130.8749847116429
 31
0.0
  0
ARC
  5
11E
  8
VISIBLE
 10
178.3782374780274
 20
130.8749847116429
 30
0.0
 40
0.5000000000000125
 50
180.0
 51
270.0
  0
LINE
  5
11F
  8
VISIBLE
 10
178.3782374780274
 20
130.3749847116429
 30
0.0
 11
191.3782374780274
 21
130.3749847116429
 31
0.0
  0
ARC
  5
120
  8
VISIBLE
 10
191.3782374780274
 20
130.8749847116429
 30
0.0
 40
0.5000000000000004
 50
270.0
 51
0.0
  0
LINE
  5
121
  8
VISIBLE
 10
191.8782374780274
 20
143.8749847116429
 30
0.0
 11
191.8782374780274
 21
130.8749847116429
 31
0.0
  0
ARC
  5
122
  8
VISIBLE
 10
191.3782374780274
 20
143.8749847116429
 30
0.0
 40
0.5000000000000004
 50
0.0
 51
90.0
  0
LINE
  5
123
  8
VISIBLE
 10
178.3782374780274
 20
144.3749847116428
 30
0.0
 11
191.3782374780274
 21
144.3749847116429
 31
0.0
  0
ARC
  5
124
  8
VISIBLE
 10
178.3782374780274
 20
143.8749847116428
 30
0.0
 40
0.5000000000000125
 50
90.0
 51
179.9999999999967
  0
LINE
  5
125
  8
VISIBLE
 10
358.8532374780274
 20
162.9249847116428
 30
0.0
 11
358.8532374780274
 21
149.9249847116428
 31
0.0
  0
ARC
  5
126
  8
VISIBLE
 10
359.3532374780274
 20
149.9249847116428
 30
0.0
 40
0.5000000000000004
 50
180.0
 51
270.0
  0
LINE
  5
127
  8
VISIBLE
 10
359.3532374780274
 20
149.4249847116428
 30
0.0
 11
372.3532374780274
 21
149.4249847116428
 31
0.0
  0
ARC
  5
128
  8
VISIBLE
 10
372.3532374780274
 20
149.9249847116428
 30
0.0
 40
0.5000000000000004
 50
270.0
 51
0.0
  0
LINE
  5
129
  8
VISIBLE
 10
372.8532374780274
 20
162.9249847116428
 30
0.0
 11
372.8532374780274
 21
149.9249847116428
 31
0.0
  0
ARC
  5
12A
  8
VISIBLE
 10
372.3532374780274
 20
162.9249847116428
 30
0.0
 40
0.5000000000000004
 50
0.0
 51
90.0
  0
LINE
  5
12B
  8
VISIBLE
 10
359.3532374780274
 20
163.4249847116428
 30
0.0
 11
372.3532374780274
 21
163.4249847116428
 31
0.0
  0
ARC
  5
12C
  8
VISIBLE
 10
359.3532374780274
 20
162.9249847116428
 30
0.0
 40
0.5000000000000004
 50
90.0
 51
180.0
  0
LINE
  5
12D
  8
VISIBLE
 10
339.8032374780274
 20
162.9249847116428
 30
0.0
 11
339.8032374780274
 21
149.9249847116428
 31
0.0
  0
ARC
  5
12E
  8
VISIBLE
 10
340.3032374780274
 20
149.9249847116428
 30
0.0
 40
0.5000000000000004
 50
180.0
 51
270.0
  0
LINE
  5
12F
  8
VISIBLE
 10
340.3032374780274
 20
149.4249847116428
 30
0.0
 11
353.3032374780274
 21
149.4249847116428
 31
0.0
  0
ARC
  5
130
  8
VISIBLE
 10
353.3032374780274
 20
149.9249847116428
 30
0.0
 40
0.5000000000000004
 50
270.0
 51
0.0
  0
LINE
  5
131
  8
VISIBLE
 10
353.8032374780274
 20
162.9249847116428
 30
0.0
 11
353.8032374780274
 21
149.9249847116428
 31
0.0
  0
ARC
  5
132
  8
VISIBLE
 10
353.3032374780274
 20
162.9249847116428
 30
0.0
 40
0.5000000000000004
 50
0.0
 51
90.0
  0
LINE
  5
133
  8
VISIBLE
 10
340.3032374780274
 20
163.4249847116428
 30
0.0
 11
353.3032374780274
 21
163.4249847116428
 31
0.0
  0
ARC
  5
134
  8
VISIBLE
 10
340.3032374780274
 20
162.9249847116428
 30
0.0
 40
0.5000000000000004
 50
90.0
 51
180.0
  0
LINE
  5
135
  8
VISIBLE
 10
320.7532374780274
 20
162.9249847116428
 30
0.0
 11
320.7532374780274
 21
149.9249847116428
 31
0.0
  0
ARC
  5
136
  8
VISIBLE
 10
321.2532374780274
 20
149.9249847116428
 30
0.0
 40
0.5000000000000004
 50
180.0
 51
270.0
  0
LINE
  5
137
  8
VISIBLE
 10
321.2532374780274
 20
149.4249847116428
 30
0.0
 11
334.2532374780274
 21
149.4249847116428
 31
0.0
  0
ARC
  5
138
  8
VISIBLE
 10
334.2532374780274
 20
149.9249847116428
 30
0.0
 40
0.5000000000000004
 50
270.0
 51
0.0
  0
LINE
  5
139
  8
VISIBLE
 10
334.7532374780274
 20
162.9249847116428
 30
0.0
 11
334.7532374780274
 21
149.9249847116428
 31
0.0
  0
ARC
  5
13A
  8
VISIBLE
 10
334.2532374780274
 20
162.9249847116428
 30
0.0
 40
0.5000000000000004
 50
0.0
 51
90.0
  0
LINE
  5
13B
  8
VISIBLE
 10
321.2532374780274
 20
163.4249847116428
 30
0.0
 11
334.2532374780274
 21
163.4249847116428
 31
0.0
  0
ARC
  5
13C
  8
VISIBLE
 10
321.2532374780274
 20
162.9249847116428
 30
0.0
 40
0.5000000000000004
 50
90.0
 51
180.0
  0
LINE
  5
13D
  8
VISIBLE
 10
301.7032374780274
 20
162.9249847116428
 30
0.0
 11
301.7032374780274
 21
149.9249847116428
 31
0.0
  0
ARC
  5
13E
  8
VISIBLE
 10
302.2032374780274
 20
149.9249847116428
 30
0.0
 40
0.5000000000000004
 50
180.0
 51
270.0
  0
LINE
  5
13F
  8
VISIBLE
 10
302.2032374780274
 20
149.4249847116428
 30
0.0
 11
315.2032374780274
 21
149.4249847116428
 31
0.0
  0
ARC
  5
140
  8
VISIBLE
 10
315.2032374780274
 20
149.9249847116428
 30
0.0
 40
0.5000000000000004
 50
270.0
 51
0.0
  0
LINE
  5
141
  8
VISIBLE
 10
315.7032374780274
 20
162.9249847116428
 30
0.0
 11
315.7032374780274
 21
149.9249847116428
 31
0.0
  0
ARC
  5
142
  8
VISIBLE
 10
315.2032374780274
 20
162.9249847116428
 30
0.0
 40
0.5000000000000004
 50
0.0
 51
90.0
  0
LINE
  5
143
  8
VISIBLE
 10
302.2032374780274
 20
163.4249847116428
 30
0.0
 11
315.2032374780274
 21
163.4249847116428
 31
0.0
  0
ARC
  5
144
  8
VISIBLE
 10
302.2032374780274
 20
162.9249847116428
 30
0.0
 40
0.5000000000000004
 50
90.0
 51
180.0
  0
LINE
  5
145
  8
VISIBLE
 10
282.6532374780274
 20
162.9249847116428
 30
0.0
 11
282.6532374780274
 21
149.9249847116428
 31
0.0
  0
ARC
  5
146
  8
VISIBLE
 10
283.1532374780274
 20
149.9249847116428
 30
0.0
 40
0.4999999999999996
 50
180.0
 51
270.0
  0
LINE
  5
147
  8
VISIBLE
 10
283.1532374780274
 20
149.4249847116428
 30
0.0
 11
296.1532374780274
 21
149.4249847116428
 31
0.0
  0
ARC
  5
148
  8
VISIBLE
 10
296.1532374780274
 20
149.9249847116428
 30
0.0
 40
0.5000000000000034
 50
270.0
 51
0.0
  0
LINE
  5
149
  8
VISIBLE
 10
296.6532374780274
 20
162.9249847116428
 30
0.0
 11
296.6532374780274
 21
149.9249847116428
 31
0.0
  0
ARC
  5
14A
  8
VISIBLE
 10
296.1532374780274
 20
162.9249847116428
 30
0.0
 40
0.5000000000000034
 50
0.0
 51
90.0
  0
LINE
  5
14B
  8
VISIBLE
 10
283.1532374780274
 20
163.4249847116428
 30
0.0
 11
296.1532374780274
 21
163.4249847116428
 31
0.0
  0
ARC
  5
14C
  8
VISIBLE
 10
283.1532374780274
 20
162.9249847116428
 30
0.0
 40
0.4999999999999996
 50
90.0
 51
180.0
  0
LINE
  5
14D
  8
VISIBLE
 10
263.6032374780274
 20
162.9249847116428
 30
0.0
 11
263.6032374780274
 21
149.9249847116428
 31
0.0
  0
ARC
  5
14E
  8
VISIBLE
 10
264.1032374780274
 20
149.9249847116428
 30
0.0
 40
0.5000000000000018
 50
180.0
 51
270.0
  0
LINE
  5
14F
  8
VISIBLE
 10
264.1032374780274
 20
149.4249847116428
 30
0.0
 11
277.1032374780274
 21
149.4249847116428
 31
0.0
  0
ARC
  5
150
  8
VISIBLE
 10
277.1032374780274
 20
149.9249847116428
 30
0.0
 40
0.5000000000000001
 50
270.0
 51
0.0
  0
LINE
  5
151
  8
VISIBLE
 10
277.6032374780274
 20
162.9249847116428
 30
0.0
 11
277.6032374780274
 21
149.9249847116428
 31
0.0
  0
ARC
  5
152
  8
VISIBLE
 10
277.1032374780274
 20
162.9249847116428
 30
0.0
 40
0.5000000000000001
 50
0.0
 51
90.0
  0
LINE
  5
153
  8
VISIBLE
 10
264.1032374780274
 20
163.4249847116428
 30
0.0
 11
277.1032374780274
 21
163.4249847116428
 31
0.0
  0
ARC
  5
154
  8
VISIBLE
 10
264.1032374780274
 20
162.9249847116428
 30
0.0
 40
0.5000000000000018
 50
90.0
 51
180.0
  0
LINE
  5
155
  8
VISIBLE
 10
244.5532374780274
 20
162.9249847116428
 30
0.0
 11
244.5532374780274
 21
149.9249847116428
 31
0.0
  0
ARC
  5
156
  8
VISIBLE
 10
245.0532374780274
 20
149.9249847116428
 30
0.0
 40
0.5000000000000004
 50
180.0
 51
270.0
  0
LINE
  5
157
  8
VISIBLE
 10
245.0532374780274
 20
149.4249847116428
 30
0.0
 11
258.0532374780274
 21
149.4249847116428
 31
0.0
  0
ARC
  5
158
  8
VISIBLE
 10
258.0532374780274
 20
149.9249847116428
 30
0.0
 40
0.5000000000000004
 50
270.0
 51
0.0
  0
LINE
  5
159
  8
VISIBLE
 10
258.5532374780274
 20
162.9249847116428
 30
0.0
 11
258.5532374780274
 21
149.9249847116428
 31
0.0
  0
ARC
  5
15A
  8
VISIBLE
 10
258.0532374780274
 20
162.9249847116428
 30
0.0
 40
0.5000000000000004
 50
0.0
 51
90.0
  0
LINE
  5
15B
  8
VISIBLE
 10
245.0532374780274
 20
163.4249847116428
 30
0.0
 11
258.0532374780274
 21
163.4249847116428
 31
0.0
  0
ARC
  5
15C
  8
VISIBLE
 10
245.0532374780274
 20
162.9249847116428
 30
0.0
 40
0.5000000000000004
 50
90.0
 51
180.0
  0
LINE
  5
15D
  8
VISIBLE
 10
225.5032374780274
 20
162.9249847116428
 30
0.0
 11
225.5032374780274
 21
149.9249847116428
 31
0.0
  0
ARC
  5
15E
  8
VISIBLE
 10
226.0032374780274
 20
149.9249847116428
 30
0.0
 40
0.5000000000000004
 50
180.0
 51
270.0
  0
LINE
  5
15F
  8
VISIBLE
 10
226.0032374780274
 20
149.4249847116428
 30
0.0
 11
239.0032374780274
 21
149.4249847116428
 31
0.0
  0
ARC
  5
160
  8
VISIBLE
 10
239.0032374780274
 20
149.9249847116428
 30
0.0
 40
0.5000000000000004
 50
270.0
 51
0.0
  0
LINE
  5
161
  8
VISIBLE
 10
239.5032374780274
 20
162.9249847116428
 30
0.0
 11
239.5032374780274
 21
149.9249847116428
 31
0.0
  0
ARC
  5
162
  8
VISIBLE
 10
239.0032374780274
 20
162.9249847116428
 30
0.0
 40
0.5000000000000004
 50
0.0
 51
90.0
  0
LINE
  5
163
  8
VISIBLE
 10
226.0032374780274
 20
163.4249847116428
 30
0.0
 11
239.0032374780274
 21
163.4249847116428
 31
0.0
  0
ARC
  5
164
  8
VISIBLE
 10
226.0032374780274
 20
162.9249847116428
 30
0.0
 40
0.5000000000000004
 50
90.0
 51
180.0
  0
LINE
  5
165
  8
VISIBLE
 10
206.4532374780274
 20
162.9249847116428
 30
0.0
 11
206.4532374780274
 21
149.9249847116428
 31
0.0
  0
ARC
  5
166
  8
VISIBLE
 10
206.9532374780274
 20
149.9249847116428
 30
0.0
 40
0.5000000000000004
 50
180.0
 51
270.0
  0
LINE
  5
167
  8
VISIBLE
 10
206.9532374780274
 20
149.4249847116428
 30
0.0
 11
219.9532374780274
 21
149.4249847116428
 31
0.0
  0
ARC
  5
168
  8
VISIBLE
 10
219.9532374780274
 20
149.9249847116428
 30
0.0
 40
0.5000000000000004
 50
270.0
 51
0.0
  0
LINE
  5
169
  8
VISIBLE
 10
220.4532374780274
 20
162.9249847116428
 30
0.0
 11
220.4532374780274
 21
149.9249847116428
 31
0.0
  0
ARC
  5
16A
  8
VISIBLE
 10
219.9532374780274
 20
162.9249847116428
 30
0.0
 40
0.5000000000000004
 50
0.0
 51
90.0
  0
LINE
  5
16B
  8
VISIBLE
 10
206.9532374780274
 20
163.4249847116428
 30
0.0
 11
219.9532374780274
 21
163.4249847116428
 31
0.0
  0
ARC
  5
16C
  8
VISIBLE
 10
206.9532374780274
 20
162.9249847116428
 30
0.0
 40
0.5000000000000004
 50
90.0
 51
180.0
  0
LINE
  5
16D
  8
VISIBLE
 10
187.4032374780274
 20
162.9249847116428
 30
0.0
 11
187.4032374780274
 21
149.9249847116428
 31
0.0
  0
ARC
  5
16E
  8
VISIBLE
 10
187.9032374780274
 20
149.9249847116429
 30
0.0
 40
0.5000000000000121
 50
180.0000000000032
 51
270.0
  0
LINE
  5
16F
  8
VISIBLE
 10
187.9032374780274
 20
149.4249847116428
 30
0.0
 11
200.9032374780274
 21
149.4249847116428
 31
0.0
  0
ARC
  5
170
  8
VISIBLE
 10
200.9032374780274
 20
149.9249847116428
 30
0.0
 40
0.5000000000000004
 50
270.0
 51
0.0
  0
LINE
  5
171
  8
VISIBLE
 10
201.4032374780274
 20
162.9249847116428
 30
0.0
 11
201.4032374780274
 21
149.9249847116428
 31
0.0
  0
ARC
  5
172
  8
VISIBLE
 10
200.9032374780274
 20
162.9249847116428
 30
0.0
 40
0.5000000000000004
 50
0.0
 51
90.0
  0
LINE
  5
173
  8
VISIBLE
 10
187.9032374780274
 20
163.4249847116428
 30
0.0
 11
200.9032374780274
 21
163.4249847116428
 31
0.0
  0
ARC
  5
174
  8
VISIBLE
 10
187.9032374780274
 20
162.9249847116428
 30
0.0
 40
0.5000000000000121
 50
90.0
 51
179.9999999999967
  0
LINE
  5
175
  8
VISIBLE
 10
168.3532374780274
 20
162.9249847116428
 30
0.0
 11
168.3532374780274
 21
149.9249847116428
 31
0.0
  0
ARC
  5
176
  8
VISIBLE
 10
168.8532374780274
 20
149.9249847116428
 30
0.0
 40
0.5000000000000004
 50
180.0
 51
270.0
  0
LINE
  5
177
  8
VISIBLE
 10
168.8532374780274
 20
149.4249847116428
 30
0.0
 11
181.8532374780274
 21
149.4249847116428
 31
0.0
  0
ARC
  5
178
  8
VISIBLE
 10
181.8532374780274
 20
149.9249847116428
 30
0.0
 40
0.5000000000000004
 50
270.0
 51
0.0
  0
LINE
  5
179
  8
VISIBLE
 10
182.3532374780274
 20
162.9249847116428
 30
0.0
 11
182.3532374780274
 21
149.9249847116428
 31
0.0
  0
ARC
  5
17A
  8
VISIBLE
 10
181.8532374780274
 20
162.9249847116428
 30
0.0
 40
0.5000000000000004
 50
0.0
 51
90.0
  0
LINE
  5
17B
  8
VISIBLE
 10
168.8532374780274
 20
163.4249847116428
 30
0.0
 11
181.8532374780274
 21
163.4249847116428
 31
0.0
  0
ARC
  5
17C
  8
VISIBLE
 10
168.8532374780274
 20
162.9249847116428
 30
0.0
 40
0.5000000000000004
 50
90.0
 51
180.0
  0
LINE
  5
17D
  8
VISIBLE
 10
396.9532374780274
 20
181.9749847116429
 30
0.0
 11
396.9532374780274
 21
168.9749847116428
 31
0.0
  0
ARC
  5
17E
  8
VISIBLE
 10
397.4532374780274
 20
168.9749847116428
 30
0.0
 40
0.4999999999999883
 50
180.0
 51
270.0
  0
LINE
  5
17F
  8
VISIBLE
 10
397.4532374780274
 20
168.4749847116429
 30
0.0
 11
410.4532374780274
 21
168.4749847116428
 31
0.0
  0
ARC
  5
180
  8
VISIBLE
 10
410.4532374780274
 20
168.9749847116428
 30
0.0
 40
0.5000000000000004
 50
270.0
 51
0.0
  0
LINE
  5
181
  8
VISIBLE
 10
410.9532374780274
 20
181.9749847116429
 30
0.0
 11
410.9532374780274
 21
168.9749847116428
 31
0.0
  0
ARC
  5
182
  8
VISIBLE
 10
410.4532374780274
 20
181.9749847116429
 30
0.0
 40
0.5000000000000004
 50
0.0
 51
90.0
  0
LINE
  5
183
  8
VISIBLE
 10
397.4532374780274
 20
182.4749847116429
 30
0.0
 11
410.4532374780274
 21
182.4749847116429
 31
0.0
  0
ARC
  5
184
  8
VISIBLE
 10
397.4532374780274
 20
181.9749847116429
 30
0.0
 40
0.4999999999999883
 50
90.0
 51
180.0000000000032
  0
LINE
  5
185
  8
VISIBLE
 10
373.1407374780274
 20
181.9749847116429
 30
0.0
 11
373.1407374780274
 21
168.9749847116428
 31
0.0
  0
ARC
  5
186
  8
VISIBLE
 10
373.6407374780274
 20
168.9749847116428
 30
0.0
 40
0.5000000000000004
 50
180.0
 51
270.0
  0
LINE
  5
187
  8
VISIBLE
 10
373.6407374780274
 20
168.4749847116429
 30
0.0
 11
386.6407374780274
 21
168.4749847116428
 31
0.0
  0
ARC
  5
188
  8
VISIBLE
 10
386.6407374780274
 20
168.9749847116429
 30
0.0
 40
0.5000000000000125
 50
270.0
 51
0.0
  0
LINE
  5
189
  8
VISIBLE
 10
387.1407374780275
 20
181.9749847116429
 30
0.0
 11
387.1407374780275
 21
168.9749847116428
 31
0.0
  0
ARC
  5
18A
  8
VISIBLE
 10
386.6407374780274
 20
181.9749847116428
 30
0.0
 40
0.5000000000000125
 50
0.0
 51
90.0
  0
LINE
  5
18B
  8
VISIBLE
 10
373.6407374780274
 20
182.4749847116429
 30
0.0
 11
386.6407374780274
 21
182.4749847116429
 31
0.0
  0
ARC
  5
18C
  8
VISIBLE
 10
373.6407374780274
 20
181.9749847116429
 30
0.0
 40
0.5000000000000004
 50
90.0
 51
180.0
  0
LINE
  5
18D
  8
VISIBLE
 10
354.0907374780274
 20
181.9749847116429
 30
0.0
 11
354.0907374780274
 21
168.9749847116428
 31
0.0
  0
ARC
  5
18E
  8
VISIBLE
 10
354.5907374780274
 20
168.9749847116428
 30
0.0
 40
0.5000000000000004
 50
180.0
 51
270.0
  0
LINE
  5
18F
  8
VISIBLE
 10
354.5907374780274
 20
168.4749847116429
 30
0.0
 11
367.5907374780274
 21
168.4749847116428
 31
0.0
  0
ARC
  5
190
  8
VISIBLE
 10
367.5907374780274
 20
168.9749847116428
 30
0.0
 40
0.5000000000000004
 50
270.0
 51
0.0
  0
LINE
  5
191
  8
VISIBLE
 10
368.0907374780274
 20
181.9749847116429
 30
0.0
 11
368.0907374780274
 21
168.9749847116428
 31
0.0
  0
ARC
  5
192
  8
VISIBLE
 10
367.5907374780274
 20
181.9749847116429
 30
0.0
 40
0.5000000000000004
 50
0.0
 51
90.0
  0
LINE
  5
193
  8
VISIBLE
 10
354.5907374780274
 20
182.4749847116429
 30
0.0
 11
367.5907374780274
 21
182.4749847116429
 31
0.0
  0
ARC
  5
194
  8
VISIBLE
 10
354.5907374780274
 20
181.9749847116429
 30
0.0
 40
0.5000000000000004
 50
90.0
 51
180.0
  0
LINE
  5
195
  8
VISIBLE
 10
335.0407374780274
 20
181.9749847116429
 30
0.0
 11
335.0407374780274
 21
168.9749847116428
 31
0.0
  0
ARC
  5
196
  8
VISIBLE
 10
335.5407374780274
 20
168.9749847116428
 30
0.0
 40
0.4999999999999944
 50
180.0
 51
270.0
  0
LINE
  5
197
  8
VISIBLE
 10
335.5407374780274
 20
168.4749847116429
 30
0.0
 11
348.5407374780274
 21
168.4749847116428
 31
0.0
  0
ARC
  5
198
  8
VISIBLE
 10
348.5407374780274
 20
168.9749847116428
 30
0.0
 40
0.5000000000000004
 50
270.0
 51
0.0
  0
LINE
  5
199
  8
VISIBLE
 10
349.0407374780274
 20
181.9749847116429
 30
0.0
 11
349.0407374780274
 21
168.9749847116428
 31
0.0
  0
ARC
  5
19A
  8
VISIBLE
 10
348.5407374780274
 20
181.9749847116429
 30
0.0
 40
0.5000000000000004
 50
0.0
 51
90.0
  0
LINE
  5
19B
  8
VISIBLE
 10
335.5407374780274
 20
182.4749847116429
 30
0.0
 11
348.5407374780274
 21
182.4749847116429
 31
0.0
  0
ARC
  5
19C
  8
VISIBLE
 10
335.5407374780274
 20
181.9749847116429
 30
0.0
 40
0.4999999999999987
 50
90.0
 51
180.0
  0
LINE
  5
19D
  8
VISIBLE
 10
315.9907374780274
 20
181.9749847116429
 30
0.0
 11
315.9907374780274
 21
168.9749847116428
 31
0.0
  0
ARC
  5
19E
  8
VISIBLE
 10
316.4907374780274
 20
168.9749847116428
 30
0.0
 40
0.4999999999999944
 50
180.0
 51
270.0
  0
LINE
  5
19F
  8
VISIBLE
 10
316.4907374780274
 20
168.4749847116429
 30
0.0
 11
329.4907374780274
 21
168.4749847116428
 31
0.0
  0
ARC
  5
1A0
  8
VISIBLE
 10
329.4907374780274
 20
168.9749847116428
 30
0.0
 40
0.5000000000000004
 50
270.0
 51
0.0
  0
LINE
  5
1A1
  8
VISIBLE
 10
329.9907374780274
 20
181.9749847116429
 30
0.0
 11
329.9907374780274
 21
168.9749847116428
 31
0.0
  0
ARC
  5
1A2
  8
VISIBLE
 10
329.4907374780274
 20
181.9749847116429
 30
0.0
 40
0.5000000000000039
 50
0.0
 51
90.0
  0
LINE
  5
1A3
  8
VISIBLE
 10
316.4907374780274
 20
182.4749847116429
 30
0.0
 11
329.4907374780274
 21
182.4749847116429
 31
0.0
  0
ARC
  5
1A4
  8
VISIBLE
 10
316.4907374780274
 20
181.9749847116429
 30
0.0
 40
0.4999999999999987
 50
90.0
 51
180.0
  0
LINE
  5
1A5
  8
VISIBLE
 10
296.9407374780274
 20
181.9749847116429
 30
0.0
 11
296.9407374780274
 21
168.9749847116428
 31
0.0
  0
ARC
  5
1A6
  8
VISIBLE
 10
297.4407374780274
 20
168.9749847116428
 30
0.0
 40
0.5000000000000004
 50
180.0
 51
270.0
  0
LINE
  5
1A7
  8
VISIBLE
 10
297.4407374780274
 20
168.4749847116429
 30
0.0
 11
310.4407374780274
 21
168.4749847116428
 31
0.0
  0
ARC
  5
1A8
  8
VISIBLE
 10
310.4407374780274
 20
168.9749847116428
 30
0.0
 40
0.5000000000000004
 50
270.0
 51
0.0
  0
LINE
  5
1A9
  8
VISIBLE
 10
310.9407374780274
 20
181.9749847116429
 30
0.0
 11
310.9407374780274
 21
168.9749847116428
 31
0.0
  0
ARC
  5
1AA
  8
VISIBLE
 10
310.4407374780274
 20
181.9749847116429
 30
0.0
 40
0.5000000000000039
 50
0.0
 51
90.0
  0
LINE
  5
1AB
  8
VISIBLE
 10
297.4407374780274
 20
182.4749847116429
 30
0.0
 11
310.4407374780274
 21
182.4749847116429
 31
0.0
  0
ARC
  5
1AC
  8
VISIBLE
 10
297.4407374780274
 20
181.9749847116429
 30
0.0
 40
0.5000000000000039
 50
90.0
 51
180.0
  0
LINE
  5
1AD
  8
VISIBLE
 10
277.8907374780274
 20
181.9749847116429
 30
0.0
 11
277.8907374780274
 21
168.9749847116428
 31
0.0
  0
ARC
  5
1AE
  8
VISIBLE
 10
278.3907374780274
 20
168.9749847116428
 30
0.0
 40
0.5000000000000002
 50
180.0
 51
270.0
  0
LINE
  5
1AF
  8
VISIBLE
 10
278.3907374780274
 20
168.4749847116429
 30
0.0
 11
291.3907374780274
 21
168.4749847116428
 31
0.0
  0
ARC
  5
1B0
  8
VISIBLE
 10
291.3907374780274
 20
168.9749847116428
 30
0.0
 40
0.5000000000000004
 50
270.0
 51
0.0
  0
LINE
  5
1B1
  8
VISIBLE
 10
291.8907374780274
 20
181.9749847116429
 30
0.0
 11
291.8907374780274
 21
168.9749847116428
 31
0.0
  0
ARC
  5
1B2
  8
VISIBLE
 10
291.3907374780274
 20
181.9749847116429
 30
0.0
 40
0.5000000000000039
 50
0.0
 51
90.0
  0
LINE
  5
1B3
  8
VISIBLE
 10
278.3907374780274
 20
182.4749847116429
 30
0.0
 11
291.3907374780274
 21
182.4749847116429
 31
0.0
  0
ARC
  5
1B4
  8
VISIBLE
 10
278.3907374780274
 20
181.9749847116429
 30
0.0
 40
0.5000000000000032
 50
90.0
 51
180.0
  0
LINE
  5
1B5
  8
VISIBLE
 10
258.8407374780274
 20
181.9749847116429
 30
0.0
 11
258.8407374780274
 21
168.9749847116428
 31
0.0
  0
ARC
  5
1B6
  8
VISIBLE
 10
259.3407374780274
 20
168.9749847116428
 30
0.0
 40
0.5000000000000004
 50
180.0
 51
270.0
  0
LINE
  5
1B7
  8
VISIBLE
 10
259.3407374780274
 20
168.4749847116429
 30
0.0
 11
272.3407374780274
 21
168.4749847116428
 31
0.0
  0
ARC
  5
1B8
  8
VISIBLE
 10
272.3407374780274
 20
168.9749847116428
 30
0.0
 40
0.5000000000000002
 50
270.0
 51
0.0
  0
LINE
  5
1B9
  8
VISIBLE
 10
272.8407374780274
 20
181.9749847116429
 30
0.0
 11
272.8407374780274
 21
168.9749847116428
 31
0.0
  0
ARC
  5
1BA
  8
VISIBLE
 10
272.3407374780274
 20
181.9749847116429
 30
0.0
 40
0.5000000000000032
 50
0.0
 51
90.0
  0
LINE
  5
1BB
  8
VISIBLE
 10
259.3407374780274
 20
182.4749847116429
 30
0.0
 11
272.3407374780274
 21
182.4749847116429
 31
0.0
  0
ARC
  5
1BC
  8
VISIBLE
 10
259.3407374780274
 20
181.9749847116429
 30
0.0
 40
0.5000000000000039
 50
90.0
 51
180.0
  0
LINE
  5
1BD
  8
VISIBLE
 10
239.7907374780274
 20
181.9749847116429
 30
0.0
 11
239.7907374780274
 21
168.9749847116428
 31
0.0
  0
ARC
  5
1BE
  8
VISIBLE
 10
240.2907374780274
 20
168.9749847116428
 30
0.0
 40
0.5000000000000004
 50
180.0
 51
270.0
  0
LINE
  5
1BF
  8
VISIBLE
 10
240.2907374780274
 20
168.4749847116429
 30
0.0
 11
253.2907374780274
 21
168.4749847116428
 31
0.0
  0
ARC
  5
1C0
  8
VISIBLE
 10
253.2907374780274
 20
168.9749847116428
 30
0.0
 40
0.4999999999999978
 50
270.0
 51
0.0
  0
LINE
  5
1C1
  8
VISIBLE
 10
253.7907374780274
 20
181.9749847116429
 30
0.0
 11
253.7907374780274
 21
168.9749847116428
 31
0.0
  0
ARC
  5
1C2
  8
VISIBLE
 10
253.2907374780274
 20
181.9749847116429
 30
0.0
 40
0.5000000000000004
 50
0.0
 51
89.99999999999675
  0
LINE
  5
1C3
  8
VISIBLE
 10
240.2907374780274
 20
182.4749847116429
 30
0.0
 11
253.2907374780274
 21
182.4749847116429
 31
0.0
  0
ARC
  5
1C4
  8
VISIBLE
 10
240.2907374780274
 20
181.9749847116429
 30
0.0
 40
0.5000000000000039
 50
90.0
 51
180.0
  0
LINE
  5
1C5
  8
VISIBLE
 10
220.7407374780274
 20
181.9749847116429
 30
0.0
 11
220.7407374780274
 21
168.9749847116428
 31
0.0
  0
ARC
  5
1C6
  8
VISIBLE
 10
221.2407374780274
 20
168.9749847116428
 30
0.0
 40
0.5000000000000004
 50
180.0
 51
270.0
  0
LINE
  5
1C7
  8
VISIBLE
 10
221.2407374780274
 20
168.4749847116429
 30
0.0
 11
234.2407374780274
 21
168.4749847116428
 31
0.0
  0
ARC
  5
1C8
  8
VISIBLE
 10
234.2407374780274
 20
168.9749847116428
 30
0.0
 40
0.4999999999999944
 50
270.0
 51
0.0
  0
LINE
  5
1C9
  8
VISIBLE
 10
234.7407374780274
 20
181.9749847116429
 30
0.0
 11
234.7407374780274
 21
168.9749847116428
 31
0.0
  0
ARC
  5
1CA
  8
VISIBLE
 10
234.2407374780274
 20
181.9749847116429
 30
0.0
 40
0.4999999999999987
 50
0.0
 51
90.0
  0
LINE
  5
1CB
  8
VISIBLE
 10
221.2407374780274
 20
182.4749847116429
 30
0.0
 11
234.2407374780274
 21
182.4749847116429
 31
0.0
  0
ARC
  5
1CC
  8
VISIBLE
 10
221.2407374780274
 20
181.9749847116429
 30
0.0
 40
0.5000000000000039
 50
90.0
 51
180.0
  0
LINE
  5
1CD
  8
VISIBLE
 10
201.6907374780274
 20
181.9749847116429
 30
0.0
 11
201.6907374780274
 21
168.9749847116428
 31
0.0
  0
ARC
  5
1CE
  8
VISIBLE
 10
202.1907374780274
 20
168.9749847116428
 30
0.0
 40
0.5000000000000004
 50
180.0
 51
270.0
  0
LINE
  5
1CF
  8
VISIBLE
 10
202.1907374780274
 20
168.4749847116429
 30
0.0
 11
215.1907374780274
 21
168.4749847116428
 31
0.0
  0
ARC
  5
1D0
  8
VISIBLE
 10
215.1907374780274
 20
168.9749847116428
 30
0.0
 40
0.5000000000000004
 50
270.0
 51
0.0
  0
LINE
  5
1D1
  8
VISIBLE
 10
215.6907374780274
 20
181.9749847116429
 30
0.0
 11
215.6907374780274
 21
168.9749847116428
 31
0.0
  0
ARC
  5
1D2
  8
VISIBLE
 10
215.1907374780274
 20
181.9749847116429
 30
0.0
 40
0.5000000000000039
 50
0.0
 51
90.0
  0
LINE
  5
1D3
  8
VISIBLE
 10
202.1907374780274
 20
182.4749847116429
 30
0.0
 11
215.1907374780274
 21
182.4749847116429
 31
0.0
  0
ARC
  5
1D4
  8
VISIBLE
 10
202.1907374780274
 20
181.9749847116429
 30
0.0
 40
0.5000000000000004
 50
90.0
 51
180.0
  0
LINE
  5
1D5
  8
VISIBLE
 10
182.6407374780274
 20
181.9749847116429
 30
0.0
 11
182.6407374780274
 21
168.9749847116428
 31
0.0
  0
ARC
  5
1D6
  8
VISIBLE
 10
183.1407374780274
 20
168.9749847116428
 30
0.0
 40
0.5000000000000004
 50
180.0
 51
270.0
  0
LINE
  5
1D7
  8
VISIBLE
 10
183.1407374780274
 20
168.4749847116429
 30
0.0
 11
196.1407374780274
 21
168.4749847116428
 31
0.0
  0
ARC
  5
1D8
  8
VISIBLE
 10
196.1407374780274
 20
168.9749847116428
 30
0.0
 40
0.5000000000000004
 50
270.0
 51
0.0
  0
LINE
  5
1D9
  8
VISIBLE
 10
196.6407374780274
 20
181.9749847116429
 30
0.0
 11
196.6407374780274
 21
168.9749847116428
 31
0.0
  0
ARC
  5
1DA
  8
VISIBLE
 10
196.1407374780274
 20
181.9749847116429
 30
0.0
 40
0.5000000000000004
 50
0.0
 51
90.0
  0
LINE
  5
1DB
  8
VISIBLE
 10
183.1407374780274
 20
182.4749847116429
 30
0.0
 11
196.1407374780274
 21
182.4749847116429
 31
0.0
  0
ARC
  5
1DC
  8
VISIBLE
 10
183.1407374780274
 20
181.9749847116429
 30
0.0
 40
0.5000000000000004
 50
90.0
 51
180.0
  0
LINE
  5
1DD
  8
VISIBLE
 10
163.5907374780274
 20
181.9749847116429
 30
0.0
 11
163.5907374780274
 21
168.9749847116428
 31
0.0
  0
ARC
  5
1DE
  8
VISIBLE
 10
164.0907374780274
 20
168.9749847116429
 30
0.0
 40
0.5000000000000125
 50
180.0000000000032
 51
270.0
  0
LINE
  5
1DF
  8
VISIBLE
 10
164.0907374780274
 20
168.4749847116429
 30
0.0
 11
177.0907374780274
 21
168.4749847116428
 31
0.0
  0
ARC
  5
1E0
  8
VISIBLE
 10
177.0907374780274
 20
168.9749847116428
 30
0.0
 40
0.5000000000000004
 50
270.0
 51
0.0
  0
LINE
  5
1E1
  8
VISIBLE
 10
177.5907374780274
 20
181.9749847116429
 30
0.0
 11
177.5907374780274
 21
168.9749847116428
 31
0.0
  0
ARC
  5
1E2
  8
VISIBLE
 10
177.0907374780274
 20
181.9749847116429
 30
0.0
 40
0.5000000000000004
 50
0.0
 51
90.0
  0
LINE
  5
1E3
  8
VISIBLE
 10
164.0907374780274
 20
182.4749847116429
 30
0.0
 11
177.0907374780274
 21
182.4749847116429
 31
0.0
  0
ARC
  5
1E4
  8
VISIBLE
 10
164.0907374780274
 20
181.9749847116428
 30
0.0
 40
0.5000000000000125
 50
90.0
 51
179.9999999999967
  0
LINE
  5
1E5
  8
VISIBLE
 10
139.7782374780274
 20
181.9749847116429
 30
0.0
 11
139.7782374780274
 21
168.9749847116428
 31
0.0
  0
ARC
  5
1E6
  8
VISIBLE
 10
140.2782374780274
 20
168.9749847116428
 30
0.0
 40
0.5000000000000004
 50
180.0
 51
270.0
  0
LINE
  5
1E7
  8
VISIBLE
 10
140.2782374780274
 20
168.4749847116429
 30
0.0
 11
153.2782374780274
 21
168.4749847116428
 31
0.0
  0
ARC
  5
1E8
  8
VISIBLE
 10
153.2782374780274
 20
168.9749847116428
 30
0.0
 40
0.5000000000000004
 50
270.0
 51
0.0
  0
LINE
  5
1E9
  8
VISIBLE
 10
153.7782374780274
 20
181.9749847116429
 30
0.0
 11
153.7782374780274
 21
168.9749847116428
 31
0.0
  0
ARC
  5
1EA
  8
VISIBLE
 10
153.2782374780274
 20
181.9749847116429
 30
0.0
 40
0.5000000000000004
 50
0.0
 51
90.0
  0
LINE
  5
1EB
  8
VISIBLE
 10
140.2782374780274
 20
182.4749847116429
 30
0.0
 11
153.2782374780274
 21
182.4749847116429
 31
0.0
  0
ARC
  5
1EC
  8
VISIBLE
 10
140.2782374780274
 20
181.9749847116429
 30
0.0
 40
0.5000000000000004
 50
90.0
 51
180.0
  0
LINE
  5
1ED
  8
VISIBLE
 10
363.6157374780274
 20
201.0249847116428
 30
0.0
 11
363.6157374780274
 21
188.0249847116428
 31
0.0
  0
ARC
  5
1EE
  8
VISIBLE
 10
364.1157374780274
 20
188.0249847116428
 30
0.0
 40
0.49999999999999
 50
180.0
 51
270.0
  0
LINE
  5
1EF
  8
VISIBLE
 10
364.1157374780274
 20
187.5249847116428
 30
0.0
 11
377.1157374780274
 21
187.5249847116428
 31
0.0
  0
ARC
  5
1F0
  8
VISIBLE
 10
377.1157374780274
 20
188.0249847116428
 30
0.0
 40
0.5000000000000004
 50
270.0
 51
0.0
  0
LINE
  5
1F1
  8
VISIBLE
 10
377.6157374780274
 20
201.0249847116428
 30
0.0
 11
377.6157374780274
 21
188.0249847116428
 31
0.0
  0
ARC
  5
1F2
  8
VISIBLE
 10
377.1157374780274
 20
201.0249847116428
 30
0.0
 40
0.5000000000000004
 50
0.0
 51
90.0
  0
LINE
  5
1F3
  8
VISIBLE
 10
364.1157374780274
 20
201.5249847116428
 30
0.0
 11
377.1157374780274
 21
201.5249847116428
 31
0.0
  0
ARC
  5
1F4
  8
VISIBLE
 10
364.1157374780274
 20
201.0249847116429
 30
0.0
 40
0.49999999999999
 50
90.0
 51
180.0000000000032
  0
LINE
  5
1F5
  8
VISIBLE
 10
344.5657374780274
 20
201.0249847116428
 30
0.0
 11
344.5657374780274
 21
188.0249847116428
 31
0.0
  0
ARC
  5
1F6
  8
VISIBLE
 10
345.0657374780274
 20
188.0249847116428
 30
0.0
 40
0.5000000000000004
 50
180.0
 51
270.0
  0
LINE
  5
1F7
  8
VISIBLE
 10
345.0657374780274
 20
187.5249847116428
 30
0.0
 11
358.0657374780274
 21
187.5249847116428
 31
0.0
  0
ARC
  5
1F8
  8
VISIBLE
 10
358.0657374780274
 20
188.0249847116429
 30
0.0
 40
0.5000000000000109
 50
270.0
 51
0.0
  0
LINE
  5
1F9
  8
VISIBLE
 10
358.5657374780274
 20
201.0249847116428
 30
0.0
 11
358.5657374780274
 21
188.0249847116428
 31
0.0
  0
ARC
  5
1FA
  8
VISIBLE
 10
358.0657374780274
 20
201.0249847116428
 30
0.0
 40
0.5000000000000109
 50
0.0
 51
90.0
  0
LINE
  5
1FB
  8
VISIBLE
 10
345.0657374780274
 20
201.5249847116428
 30
0.0
 11
358.0657374780274
 21
201.5249847116428
 31
0.0
  0
ARC
  5
1FC
  8
VISIBLE
 10
345.0657374780274
 20
201.0249847116428
 30
0.0
 40
0.5000000000000004
 50
90.0
 51
180.0
  0
LINE
  5
1FD
  8
VISIBLE
 10
325.5157374780274
 20
201.0249847116428
 30
0.0
 11
325.5157374780274
 21
188.0249847116428
 31
0.0
  0
ARC
  5
1FE
  8
VISIBLE
 10
326.0157374780274
 20
188.0249847116428
 30
0.0
 40
0.5000000000000004
 50
180.0
 51
270.0
  0
LINE
  5
1FF
  8
VISIBLE
 10
326.0157374780274
 20
187.5249847116428
 30
0.0
 11
339.0157374780275
 21
187.5249847116428
 31
0.0
  0
ARC
  5
200
  8
VISIBLE
 10
339.0157374780275
 20
188.0249847116428
 30
0.0
 40
0.5000000000000004
 50
270.0
 51
0.0
  0
LINE
  5
201
  8
VISIBLE
 10
339.5157374780274
 20
201.0249847116428
 30
0.0
 11
339.5157374780274
 21
188.0249847116428
 31
0.0
  0
ARC
  5
202
  8
VISIBLE
 10
339.0157374780275
 20
201.0249847116428
 30
0.0
 40
0.5000000000000004
 50
0.0
 51
90.0
  0
LINE
  5
203
  8
VISIBLE
 10
326.0157374780274
 20
201.5249847116428
 30
0.0
 11
339.0157374780275
 21
201.5249847116428
 31
0.0
  0
ARC
  5
204
  8
VISIBLE
 10
326.0157374780274
 20
201.0249847116428
 30
0.0
 40
0.5000000000000004
 50
90.0
 51
180.0
  0
LINE
  5
205
  8
VISIBLE
 10
306.4657374780274
 20
201.0249847116428
 30
0.0
 11
306.4657374780274
 21
188.0249847116428
 31
0.0
  0
ARC
  5
206
  8
VISIBLE
 10
306.9657374780274
 20
188.0249847116428
 30
0.0
 40
0.5000000000000004
 50
180.0
 51
270.0
  0
LINE
  5
207
  8
VISIBLE
 10
306.9657374780274
 20
187.5249847116428
 30
0.0
 11
319.9657374780274
 21
187.5249847116428
 31
0.0
  0
ARC
  5
208
  8
VISIBLE
 10
319.9657374780274
 20
188.0249847116428
 30
0.0
 40
0.5000000000000004
 50
270.0
 51
0.0
  0
LINE
  5
209
  8
VISIBLE
 10
320.4657374780274
 20
201.0249847116428
 30
0.0
 11
320.4657374780274
 21
188.0249847116428
 31
0.0
  0
ARC
  5
20A
  8
VISIBLE
 10
319.9657374780274
 20
201.0249847116428
 30
0.0
 40
0.5000000000000004
 50
0.0
 51
90.0
  0
LINE
  5
20B
  8
VISIBLE
 10
306.9657374780274
 20
201.5249847116428
 30
0.0
 11
319.9657374780274
 21
201.5249847116428
 31
0.0
  0
ARC
  5
20C
  8
VISIBLE
 10
306.9657374780274
 20
201.0249847116428
 30
0.0
 40
0.5000000000000004
 50
90.0
 51
180.0
  0
LINE
  5
20D
  8
VISIBLE
 10
287.4157374780274
 20
201.0249847116428
 30
0.0
 11
287.4157374780274
 21
188.0249847116428
 31
0.0
  0
ARC
  5
20E
  8
VISIBLE
 10
287.9157374780274
 20
188.0249847116428
 30
0.0
 40
0.5000000000000004
 50
180.0
 51
270.0
  0
LINE
  5
20F
  8
VISIBLE
 10
287.9157374780274
 20
187.5249847116428
 30
0.0
 11
300.9157374780274
 21
187.5249847116428
 31
0.0
  0
ARC
  5
210
  8
VISIBLE
 10
300.9157374780274
 20
188.0249847116428
 30
0.0
 40
0.5000000000000004
 50
270.0
 51
0.0
  0
LINE
  5
211
  8
VISIBLE
 10
301.4157374780274
 20
201.0249847116428
 30
0.0
 11
301.4157374780274
 21
188.0249847116428
 31
0.0
  0
ARC
  5
212
  8
VISIBLE
 10
300.9157374780274
 20
201.0249847116428
 30
0.0
 40
0.5000000000000004
 50
0.0
 51
90.0
  0
LINE
  5
213
  8
VISIBLE
 10
287.9157374780274
 20
201.5249847116428
 30
0.0
 11
300.9157374780274
 21
201.5249847116428
 31
0.0
  0
ARC
  5
214
  8
VISIBLE
 10
287.9157374780274
 20
201.0249847116428
 30
0.0
 40
0.5000000000000004
 50
90.0
 51
180.0
  0
LINE
  5
215
  8
VISIBLE
 10
268.3657374780274
 20
201.0249847116428
 30
0.0
 11
268.3657374780274
 21
188.0249847116428
 31
0.0
  0
ARC
  5
216
  8
VISIBLE
 10
268.8657374780274
 20
188.0249847116428
 30
0.0
 40
0.5000000000000004
 50
180.0
 51
270.0
  0
LINE
  5
217
  8
VISIBLE
 10
268.8657374780274
 20
187.5249847116428
 30
0.0
 11
281.8657374780274
 21
187.5249847116428
 31
0.0
  0
ARC
  5
218
  8
VISIBLE
 10
281.8657374780274
 20
188.0249847116428
 30
0.0
 40
0.5000000000000004
 50
270.0
 51
0.0
  0
LINE
  5
219
  8
VISIBLE
 10
282.3657374780274
 20
201.0249847116428
 30
0.0
 11
282.3657374780274
 21
188.0249847116428
 31
0.0
  0
ARC
  5
21A
  8
VISIBLE
 10
281.8657374780274
 20
201.0249847116428
 30
0.0
 40
0.5000000000000004
 50
0.0
 51
90.0
  0
LINE
  5
21B
  8
VISIBLE
 10
268.8657374780274
 20
201.5249847116428
 30
0.0
 11
281.8657374780274
 21
201.5249847116428
 31
0.0
  0
ARC
  5
21C
  8
VISIBLE
 10
268.8657374780274
 20
201.0249847116428
 30
0.0
 40
0.5000000000000004
 50
90.0
 51
180.0
  0
LINE
  5
21D
  8
VISIBLE
 10
249.3157374780274
 20
201.0249847116428
 30
0.0
 11
249.3157374780274
 21
188.0249847116428
 31
0.0
  0
ARC
  5
21E
  8
VISIBLE
 10
249.8157374780274
 20
188.0249847116428
 30
0.0
 40
0.5000000000000004
 50
180.0
 51
270.0
  0
LINE
  5
21F
  8
VISIBLE
 10
249.8157374780274
 20
187.5249847116428
 30
0.0
 11
262.8157374780274
 21
187.5249847116428
 31
0.0
  0
ARC
  5
220
  8
VISIBLE
 10
262.8157374780274
 20
188.0249847116428
 30
0.0
 40
0.5000000000000004
 50
270.0
 51
0.0
  0
LINE
  5
221
  8
VISIBLE
 10
263.3157374780274
 20
201.0249847116428
 30
0.0
 11
263.3157374780274
 21
188.0249847116428
 31
0.0
  0
ARC
  5
222
  8
VISIBLE
 10
262.8157374780274
 20
201.0249847116428
 30
0.0
 40
0.5000000000000004
 50
0.0
 51
90.0
  0
LINE
  5
223
  8
VISIBLE
 10
249.8157374780274
 20
201.5249847116428
 30
0.0
 11
262.8157374780274
 21
201.5249847116428
 31
0.0
  0
ARC
  5
224
  8
VISIBLE
 10
249.8157374780274
 20
201.0249847116428
 30
0.0
 40
0.5000000000000004
 50
90.0
 51
180.0
  0
LINE
  5
225
  8
VISIBLE
 10
230.2657374780274
 20
201.0249847116428
 30
0.0
 11
230.2657374780274
 21
188.0249847116428
 31
0.0
  0
ARC
  5
226
  8
VISIBLE
 10
230.7657374780274
 20
188.0249847116428
 30
0.0
 40
0.5000000000000004
 50
180.0
 51
270.0
  0
LINE
  5
227
  8
VISIBLE
 10
230.7657374780274
 20
187.5249847116428
 30
0.0
 11
243.7657374780274
 21
187.5249847116428
 31
0.0
  0
ARC
  5
228
  8
VISIBLE
 10
243.7657374780274
 20
188.0249847116428
 30
0.0
 40
0.5000000000000004
 50
270.0
 51
0.0
  0
LINE
  5
229
  8
VISIBLE
 10
244.2657374780274
 20
201.0249847116428
 30
0.0
 11
244.2657374780274
 21
188.0249847116428
 31
0.0
  0
ARC
  5
22A
  8
VISIBLE
 10
243.7657374780274
 20
201.0249847116428
 30
0.0
 40
0.5000000000000004
 50
0.0
 51
90.0
  0
LINE
  5
22B
  8
VISIBLE
 10
230.7657374780274
 20
201.5249847116428
 30
0.0
 11
243.7657374780274
 21
201.5249847116428
 31
0.0
  0
ARC
  5
22C
  8
VISIBLE
 10
230.7657374780274
 20
201.0249847116428
 30
0.0
 40
0.5000000000000004
 50
90.0
 51
180.0
  0
LINE
  5
22D
  8
VISIBLE
 10
211.2157374780274
 20
201.0249847116428
 30
0.0
 11
211.2157374780274
 21
188.0249847116428
 31
0.0
  0
ARC
  5
22E
  8
VISIBLE
 10
211.7157374780274
 20
188.0249847116428
 30
0.0
 40
0.5000000000000004
 50
180.0
 51
270.0
  0
LINE
  5
22F
  8
VISIBLE
 10
211.7157374780274
 20
187.5249847116428
 30
0.0
 11
224.7157374780274
 21
187.5249847116428
 31
0.0
  0
ARC
  5
230
  8
VISIBLE
 10
224.7157374780274
 20
188.0249847116428
 30
0.0
 40
0.5000000000000004
 50
270.0
 51
0.0
  0
LINE
  5
231
  8
VISIBLE
 10
225.2157374780274
 20
201.0249847116428
 30
0.0
 11
225.2157374780274
 21
188.0249847116428
 31
0.0
  0
ARC
  5
232
  8
VISIBLE
 10
224.7157374780274
 20
201.0249847116428
 30
0.0
 40
0.5000000000000004
 50
0.0
 51
90.0
  0
LINE
  5
233
  8
VISIBLE
 10
211.7157374780274
 20
201.5249847116428
 30
0.0
 11
224.7157374780274
 21
201.5249847116428
 31
0.0
  0
ARC
  5
234
  8
VISIBLE
 10
211.7157374780274
 20
201.0249847116428
 30
0.0
 40
0.5000000000000004
 50
90.0
 51
180.0
  0
LINE
  5
235
  8
VISIBLE
 10
192.1657374780274
 20
201.0249847116428
 30
0.0
 11
192.1657374780274
 21
188.0249847116428
 31
0.0
  0
ARC
  5
236
  8
VISIBLE
 10
192.6657374780274
 20
188.0249847116428
 30
0.0
 40
0.5000000000000004
 50
180.0
 51
270.0
  0
LINE
  5
237
  8
VISIBLE
 10
192.6657374780274
 20
187.5249847116428
 30
0.0
 11
205.6657374780274
 21
187.5249847116428
 31
0.0
  0
ARC
  5
238
  8
VISIBLE
 10
205.6657374780274
 20
188.0249847116428
 30
0.0
 40
0.5000000000000004
 50
270.0
 51
0.0
  0
LINE
  5
239
  8
VISIBLE
 10
206.1657374780274
 20
201.0249847116428
 30
0.0
 11
206.1657374780274
 21
188.0249847116428
 31
0.0
  0
ARC
  5
23A
  8
VISIBLE
 10
205.6657374780274
 20
201.0249847116428
 30
0.0
 40
0.5000000000000004
 50
0.0
 51
90.0
  0
LINE
  5
23B
  8
VISIBLE
 10
192.6657374780274
 20
201.5249847116428
 30
0.0
 11
205.6657374780274
 21
201.5249847116428
 31
0.0
  0
ARC
  5
23C
  8
VISIBLE
 10
192.6657374780274
 20
201.0249847116428
 30
0.0
 40
0.5000000000000004
 50
90.0
 51
180.0
  0
LINE
  5
23D
  8
VISIBLE
 10
173.1157374780274
 20
201.0249847116428
 30
0.0
 11
173.1157374780274
 21
188.0249847116428
 31
0.0
  0
ARC
  5
23E
  8
VISIBLE
 10
173.6157374780274
 20
188.0249847116428
 30
0.0
 40
0.5000000000000004
 50
180.0
 51
270.0
  0
LINE
  5
23F
  8
VISIBLE
 10
173.6157374780274
 20
187.5249847116428
 30
0.0
 11
186.6157374780274
 21
187.5249847116428
 31
0.0
  0
ARC
  5
240
  8
VISIBLE
 10
186.6157374780274
 20
188.0249847116428
 30
0.0
 40
0.49999999999999
 50
270.0
 51
0.0
  0
LINE
  5
241
  8
VISIBLE
 10
187.1157374780274
 20
201.0249847116428
 30
0.0
 11
187.1157374780274
 21
188.0249847116428
 31
0.0
  0
ARC
  5
242
  8
VISIBLE
 10
186.6157374780274
 20
201.0249847116429
 30
0.0
 40
0.49999999999999
 50
0.0
 51
90.0
  0
LINE
  5
243
  8
VISIBLE
 10
173.6157374780274
 20
201.5249847116428
 30
0.0
 11
186.6157374780274
 21
201.5249847116428
 31
0.0
  0
ARC
  5
244
  8
VISIBLE
 10
173.6157374780274
 20
201.0249847116428
 30
0.0
 40
0.5000000000000004
 50
90.0
 51
180.0
  0
LINE
  5
245
  8
VISIBLE
 10
154.0657374780274
 20
201.0249847116428
 30
0.0
 11
154.0657374780274
 21
188.0249847116428
 31
0.0
  0
ARC
  5
246
  8
VISIBLE
 10
154.5657374780274
 20
188.0249847116429
 30
0.0
 40
0.5000000000000109
 50
180.0000000000032
 51
270.0
  0
LINE
  5
247
  8
VISIBLE
 10
154.5657374780274
 20
187.5249847116428
 30
0.0
 11
167.5657374780274
 21
187.5249847116428
 31
0.0
  0
ARC
  5
248
  8
VISIBLE
 10
167.5657374780274
 20
188.0249847116428
 30
0.0
 40
0.5000000000000004
 50
270.0
 51
0.0
  0
LINE
  5
249
  8
VISIBLE
 10
168.0657374780274
 20
201.0249847116428
 30
0.0
 11
168.0657374780274
 21
188.0249847116428
 31
0.0
  0
ARC
  5
24A
  8
VISIBLE
 10
167.5657374780274
 20
201.0249847116428
 30
0.0
 40
0.5000000000000004
 50
0.0
 51
90.0
  0
LINE
  5
24B
  8
VISIBLE
 10
154.5657374780274
 20
201.5249847116428
 30
0.0
 11
167.5657374780274
 21
201.5249847116428
 31
0.0
  0
ARC
  5
24C
  8
VISIBLE
 10
154.5657374780274
 20
201.0249847116428
 30
0.0
 40
0.5000000000000109
 50
90.0
 51
180.0
  0
LINE
  5
24D
  8
VISIBLE
 10
135.0157374780274
 20
201.0249847116428
 30
0.0
 11
135.0157374780274
 21
188.0249847116428
 31
0.0
  0
ARC
  5
24E
  8
VISIBLE
 10
135.5157374780274
 20
188.0249847116428
 30
0.0
 40
0.5000000000000004
 50
180.0
 51
270.0
  0
LINE
  5
24F
  8
VISIBLE
 10
135.5157374780274
 20
187.5249847116428
 30
0.0
 11
148.5157374780274
 21
187.5249847116428
 31
0.0
  0
ARC
  5
250
  8
VISIBLE
 10
148.5157374780274
 20
188.0249847116428
 30
0.0
 40
0.5000000000000004
 50
270.0
 51
0.0
  0
LINE
  5
251
  8
VISIBLE
 10
149.0157374780274
 20
201.0249847116428
 30
0.0
 11
149.0157374780274
 21
188.0249847116428
 31
0.0
  0
ARC
  5
252
  8
VISIBLE
 10
148.5157374780274
 20
201.0249847116428
 30
0.0
 40
0.5000000000000004
 50
0.0
 51
90.0
  0
LINE
  5
253
  8
VISIBLE
 10
135.5157374780274
 20
201.5249847116428
 30
0.0
 11
148.5157374780274
 21
201.5249847116428
 31
0.0
  0
ARC
  5
254
  8
VISIBLE
 10
135.5157374780274
 20
201.0249847116428
 30
0.0
 40
0.5000000000000004
 50
90.0
 51
180.0
  0
ARC
  5
255
  8
VISIBLE
 10
388.8714874780275
 20
163.9249847116428
 30
0.0
 40
0.5
 50
180.0
 51
270.0
  0
ARC
  5
256
  8
VISIBLE
 10
387.8714874780275
 20
164.9249847116428
 30
0.0
 40
0.5000000000000004
 50
0.0
 51
90.0
  0
LINE
  5
257
  8
VISIBLE
 10
387.8714874780275
 20
165.4249847116428
 30
0.0
 11
381.8714874780275
 21
165.4249847116428
 31
0.0
  0
ARC
  5
258
  8
VISIBLE
 10
381.8714874780275
 20
164.9249847116428
 30
0.0
 40
0.5000000000000004
 50
90.0
 51
180.0
  0
LINE
  5
259
  8
VISIBLE
 10
381.3714874780275
 20
147.9249847116428
 30
0.0
 11
381.3714874780275
 21
164.9249847116428
 31
0.0
  0
ARC
  5
25A
  8
VISIBLE
 10
381.8714874780275
 20
147.9249847116428
 30
0.0
 40
0.5000000000000004
 50
180.0
 51
270.0
  0
LINE
  5
25B
  8
VISIBLE
 10
381.8714874780275
 20
147.4249847116428
 30
0.0
 11
387.8714874780275
 21
147.4249847116428
 31
0.0
  0
ARC
  5
25C
  8
VISIBLE
 10
387.8714874780275
 20
147.9249847116428
 30
0.0
 40
0.5000000000000004
 50
270.0
 51
0.0
  0
LINE
  5
25D
  8
VISIBLE
 10
388.3714874780275
 20
147.9249847116428
 30
0.0
 11
388.3714874780275
 21
148.9249847116428
 31
0.0
  0
ARC
  5
25E
  8
VISIBLE
 10
388.8714874780275
 20
148.9249847116428
 30
0.0
 40
0.5
 50
90.0
 51
180.0
  0
LINE
  5
25F
  8
VISIBLE
 10
388.8714874780275
 20
149.4249847116428
 30
0.0
 11
404.7474874780274
 21
149.4249847116428
 31
0.0
  0
ARC
  5
260
  8
VISIBLE
 10
404.7474874780274
 20
148.9249847116428
 30
0.0
 40
0.5
 50
0.0
 51
90.0
  0
LINE
  5
261
  8
VISIBLE
 10
405.2474874780274
 20
147.9249847116428
 30
0.0
 11
405.2474874780274
 21
148.9249847116428
 31
0.0
  0
ARC
  5
262
  8
VISIBLE
 10
405.7474874780274
 20
147.9249847116428
 30
0.0
 40
0.5000000000000004
 50
180.0
 51
270.0
  0
LINE
  5
263
  8
VISIBLE
 10
405.7474874780274
 20
147.4249847116428
 30
0.0
 11
411.7474874780274
 21
147.4249847116428
 31
0.0
  0
ARC
  5
264
  8
VISIBLE
 10
411.7474874780274
 20
147.9249847116428
 30
0.0
 40
0.5000000000000004
 50
270.0
 51
0.0
  0
LINE
  5
265
  8
VISIBLE
 10
412.2474874780274
 20
147.9249847116428
 30
0.0
 11
412.2474874780274
 21
164.9249847116428
 31
0.0
  0
ARC
  5
266
  8
VISIBLE
 10
411.7474874780274
 20
164.9249847116428
 30
0.0
 40
0.5000000000000004
 50
0.0
 51
90.0
  0
LINE
  5
267
  8
VISIBLE
 10
411.7474874780274
 20
165.4249847116428
 30
0.0
 11
405.7474874780274
 21
165.4249847116428
 31
0.0
  0
ARC
  5
268
  8
VISIBLE
 10
405.7474874780274
 20
164.9249847116428
 30
0.0
 40
0.5000000000000004
 50
90.0
 51
180.0
  0
ARC
  5
269
  8
VISIBLE
 10
404.7474874780274
 20
163.9249847116428
 30
0.0
 40
0.5
 50
270.0
 51
0.0
  0
LINE
  5
26A
  8
VISIBLE
 10
388.8714874780275
 20
163.4249847116428
 30
0.0
 11
404.7474874780274
 21
163.4249847116428
 31
0.0
  0
ARC
  5
26B
  8
VISIBLE
 10
407.1287374780275
 20
187.0249847116428
 30
0.0
 40
0.5
 50
0.0
 51
90.0
  0
LINE
  5
26C
  8
VISIBLE
 10
407.6287374780275
 20
187.0249847116428
 30
0.0
 11
407.6287374780275
 21
186.0249847116428
 31
0.0
  0
ARC
  5
26D
  8
VISIBLE
 10
408.1287374780275
 20
186.0249847116428
 30
0.0
 40
0.5000000000000004
 50
180.0
 51
270.0
  0
LINE
  5
26E
  8
VISIBLE
 10
408.1287374780275
 20
185.5249847116428
 30
0.0
 11
415.2157374780274
 21
185.5249847116428
 31
0.0
  0
ARC
  5
26F
  8
VISIBLE
 10
415.2157374780274
 20
186.0249847116428
 30
0.0
 40
0.5
 50
270.0
 51
0.0
  0
LINE
  5
270
  8
VISIBLE
 10
415.7157374780274
 20
201.0249847116428
 30
0.0
 11
415.7157374780274
 21
186.0249847116428
 31
0.0
  0
ARC
  5
271
  8
VISIBLE
 10
415.2157374780274
 20
201.0249847116428
 30
0.0
 40
0.5000000000000004
 50
0.0
 51
90.0
  0
LINE
  5
272
  8
VISIBLE
 10
383.1657374780274
 20
201.5249847116428
 30
0.0
 11
415.2157374780274
 21
201.5249847116428
 31
0.0
  0
ARC
  5
273
  8
VISIBLE
 10
383.1657374780274
 20
201.0249847116428
 30
0.0
 40
0.5000000000000004
 50
90.0
 51
180.0
  0
LINE
  5
274
  8
VISIBLE
 10
382.6657374780274
 20
201.0249847116428
 30
0.0
 11
382.6657374780274
 21
186.0249847116428
 31
0.0
  0
ARC
  5
275
  8
VISIBLE
 10
383.1657374780274
 20
186.0249847116428
 30
0.0
 40
0.5
 50
180.0
 51
270.0
  0
LINE
  5
276
  8
VISIBLE
 10
383.1657374780274
 20
185.5249847116428
 30
0.0
 11
390.2527374780274
 21
185.5249847116428
 31
0.0
  0
ARC
  5
277
  8
VISIBLE
 10
390.2527374780274
 20
186.0249847116429
 30
0.0
 40
0.5000000000000125
 50
270.0
 51
0.0
  0
LINE
  5
278
  8
VISIBLE
 10
390.7527374780274
 20
187.0249847116428
 30
0.0
 11
390.7527374780274
 21
186.0249847116429
 31
0.0
  0
ARC
  5
279
  8
VISIBLE
 10
391.2527374780274
 20
187.0249847116428
 30
0.0
 40
0.5
 50
90.0
 51
180.0
  0
LINE
  5
27A
  8
VISIBLE
 10
391.2527374780274
 20
187.5249847116428
 30
0.0
 11
407.1287374780275
 21
187.5249847116428
 31
0.0
  0
ARC
  5
27B
  8
VISIBLE
 10
182.3657374780274
 20
111.0499847116428
 30
0.0
 40
2.25
 50
180.0
 51
270.0
  0
LINE
  5
27C
  8
VISIBLE
 10
180.1157374780274
 20
111.0499847116428
 30
0.0
 11
180.1157374780274
 21
126.5999847116428
 31
0.0
  0
ARC
  5
27D
  8
VISIBLE
 10
178.8657374780274
 20
126.5999847116428
 30
0.0
 40
1.25
 50
0.0
 51
90.0
  0
LINE
  5
27E
  8
VISIBLE
 10
178.8657374780274
 20
127.8499847116428
 30
0.0
 11
162.3157374780274
 21
127.8499847116428
 31
0.0
  0
ARC
  5
27F
  8
VISIBLE
 10
162.3157374780274
 20
126.5999847116428
 30
0.0
 40
1.25
 50
90.0
 51
180.0
  0
LINE
  5
280
  8
VISIBLE
 10
161.0657374780274
 20
111.0499847116428
 30
0.0
 11
161.0657374780274
 21
126.5999847116428
 31
0.0
  0
ARC
  5
281
  8
VISIBLE
 10
158.8157374780274
 20
111.0499847116428
 30
0.0
 40
2.25
 50
270.0
 51
0.0
  0
LINE
  5
282
  8
VISIBLE
 10
134.7407374780274
 20
108.7999847116428
 30
0.0
 11
158.8157374780274
 21
108.7999847116428
 31
0.0
  0
ARC
  5
283
  8
VISIBLE
 10
134.7407374780274
 20
111.0499847116428
 30
0.0
 40
2.25
 50
180.0
 51
270.0
  0
LINE
  5
284
  8
VISIBLE
 10
132.4907374780274
 20
201.7999847116428
 30
0.0
 11
132.4907374780274
 21
111.0499847116428
 31
0.0
  0
ARC
  5
285
  8
VISIBLE
 10
134.7407374780274
 20
201.7999847116428
 30
0.0
 40
2.25
 50
90.0
 51
180.0
  0
LINE
  5
286
  8
VISIBLE
 10
134.7407374780274
 20
204.0499847116428
 30
0.0
 11
415.9907374780274
 21
204.0499847116428
 31
0.0
  0
ARC
  5
287
  8
VISIBLE
 10
415.9907374780274
 20
201.7999847116428
 30
0.0
 40
2.25
 50
0.0
 51
90.0
  0
LINE
  5
288
  8
VISIBLE
 10
418.2407374780274
 20
201.7999847116428
 30
0.0
 11
418.2407374780274
 21
111.0499847116428
 31
0.0
  0
ARC
  5
289
  8
VISIBLE
 10
415.9907374780274
 20
111.0499847116428
 30
0.0
 40
2.25
 50
270.0
 51
0.0
  0
ARC
  5
28A
  8
VISIBLE
 10
391.9157374780274
 20
111.0499847116428
 30
0.0
 40
2.25
 50
180.0
 51
270.0
  0
LINE
  5
28B
  8
VISIBLE
 10
389.6657374780274
 20
111.0499847116428
 30
0.0
 11
389.6657374780274
 21
126.5999847116428
 31
0.0
  0
ARC
  5
28C
  8
VISIBLE
 10
388.4157374780274
 20
126.5999847116428
 30
0.0
 40
1.25
 50
0.0
 51
90.0
  0
LINE
  5
28D
  8
VISIBLE
 10
371.8657374780274
 20
127.8499847116428
 30
0.0
 11
388.4157374780274
 21
127.8499847116428
 31
0.0
  0
ARC
  5
28E
  8
VISIBLE
 10
371.8657374780274
 20
126.5999847116428
 30
0.0
 40
1.25
 50
90.0
 51
180.0
  0
LINE
  5
28F
  8
VISIBLE
 10
370.6157374780274
 20
111.0499847116428
 30
0.0
 11
370.6157374780274
 21
126.5999847116428
 31
0.0
  0
ARC
  5
290
  8
VISIBLE
 10
368.3657374780274
 20
111.0499847116428
 30
0.0
 40
2.25
 50
270.0
 51
0.0
  0
LINE
  5
291
  8
VISIBLE
 10
388.3714874780275
 20
163.9249847116428
 30
0.0
 11
388.3714874780275
 21
164.9249847116428
 31
0.0
  0
LINE
  5
292
  8
VISIBLE
 10
405.2474874780274
 20
163.9249847116428
 30
0.0
 11
405.2474874780274
 21
164.9249847116428
 31
0.0
  0
LINE
  5
293
  8
VISIBLE
 10
391.9157374780274
 20
108.7999847116428
 30
0.0
 11
415.9907374780274
 21
108.7999847116428
 31
0.0
  0
LINE
  5
294
  8
VISIBLE
 10
182.3657374780274
 20
108.7999847116428
 30
0.0
 11
368.3657374780274
 21
108.7999847116428
 31
0.0
  0
ENDSEC
  0
EOF
